<ttFont>
          <CharString index="0">
            rmoveto
            -6 -23 -24 -2 -28 -93 callgsubr
            77 221 callsubr
            return
          </CharString>
          <CharString index="1">
            -106 callgsubr
            114 vlineto
            23 return
          </CharString>
          <CharString index="2">
            -87 callsubr
            -3 callsubr
            vhcurveto
            -103 callsubr
            return
          </CharString>
          <CharString index="3">
            224 -107 callsubr
            return
          </CharString>
          <CharString index="4">
            208 callgsubr
            138 vlineto
            23 6 16 108 callsubr
            -114 140 return
          </CharString>
          <CharString index="5">
            27 callgsubr
            107 vlineto
            23 5 16 31 vhcurveto
            29 hlineto
            4 -10 3 -25 -26 vvcurveto
            return
          </CharString>
          <CharString index="6">
            6 callgsubr
            -15 -36 -36 -11 -49 hhcurveto
            -62 -30 17 41 hvcurveto
            48 vlineto
            -3 14 17 -2 20 hhcurveto
            return
          </CharString>
          <CharString index="7">
            -95 callgsubr
            82 return
          </CharString>
          <CharString index="8">
            vlineto
            -39 -26 -13 -39 -31 -22 3 6 -29 vhcurveto
            -126 vlineto
            -7 29 23 -3 36 hhcurveto
            125 74 55 119 hvcurveto
            return
          </CharString>
          <CharString index="9">
            0 24 5 18 35 7 -17 -25 vhcurveto
            -114 vlineto
            -29 -4 -8 -24 -1 vhcurveto
            -6 -6 1 0 hvcurveto
            -131 vlineto
            0 11 -2 10 113 39 53 103 vhcurveto
            133 vlineto
            103 -46 54 -110 -34 -27 -5 0 vhcurveto
            return
          </CharString>
          <CharString index="10">
            hlineto
            -99 callgsubr
            return
          </CharString>
          <CharString index="11">
            -123 -46 -60 -103 hvcurveto
            -94 callsubr
            return
          </CharString>
          <CharString index="12">
            -23 -6 -16 -33 -33 -6 16 23 vhcurveto
            76 -74 callsubr
            39 hlineto
            return
          </CharString>
          <CharString index="13">
            -113 -88 callgsubr
            return
          </CharString>
          <CharString index="14">
            0 15 6 21 33 9 175 callsubr
            -30 -6 -9 -30 vhcurveto
            -130 vlineto
            -1 6 5 0 6 hhcurveto
            113 46 53 103 hvcurveto
            124 vlineto
            103 -49 60 -113 -34 -22 -8 0 vhcurveto
            61 return
          </CharString>
          <CharString index="15">
            -117 82 -88 callsubr
            return
          </CharString>
          <CharString index="16">
            -100 callsubr
            117 return
          </CharString>
          <CharString index="17">
            -93 50 -60 123 251 callsubr
            vhcurveto
            return
          </CharString>
          <CharString index="18">
            -117 93 -67 -70 callgsubr
            return
          </CharString>
          <CharString index="19">
            -554 -91 callsubr
            return
          </CharString>
          <CharString index="20">
            -83 callsubr
            143 return
          </CharString>
          <CharString index="21">
            -2 15 17 -2 13 hhcurveto
            113 45 57 103 hvcurveto
            121 -66 callsubr
            return
          </CharString>
          <CharString index="22">
            -107 callgsubr
            380 vlineto
            return
          </CharString>
          <CharString index="23">
            -56 callsubr
            10 16 33 20 15 -5 0 vhcurveto
            -360 -22 callsubr
          </CharString>
          <CharString index="24">
            -63 callgsubr
            129 callgsubr
            return
          </CharString>
          <CharString index="25">
            -29 callsubr
            250 -63 hlineto
            0 -26 5 -33 -123 -29 -59 -103 vhcurveto
            -78 vlineto
            -103 36 -54 123 34 18 6 0 vhcurveto
            -105 136 554 83 vlineto
            endchar
          </CharString>
          <CharString index="26">
            12 41 hvcurveto
            28 vlineto
            -66 callgsubr
            return
          </CharString>
          <CharString index="27">
            -77 callsubr
            100 -133 -258 vlineto
            return
          </CharString>
          <CharString index="28">
            -85 hlineto
            -60 callsubr
            return
          </CharString>
          <CharString index="29">
            -42 16 -33 59 156 callsubr
            return
          </CharString>
          <CharString index="30">
            -54 callsubr
            -9 1 1 -12 vhcurveto
            return
          </CharString>
          <CharString index="31">
            122 callsubr
            153 callsubr
            return
          </CharString>
          <CharString index="32">
            -71 callgsubr
            vlineto
            endchar
          </CharString>
          <CharString index="33">
            -80 callgsubr
            vhcurveto
            return
          </CharString>
          <CharString index="34">
            rmoveto
            -355 vlineto
            -106 68 201 callgsubr
            69 73 106 vhcurveto
            355 vlineto
            106 -69 73 -141 -141 -68 -73 -106 vhcurveto
            269 -8 rmoveto
            -339 vlineto
            -31 -18 -19 -42 -42 -17 20 30 vhcurveto
            339 vlineto
            31 17 19 42 42 18 -20 -30 vhcurveto
            return
          </CharString>
          <CharString index="35">
            -117 512 hlineto
            0 10 -4 callsubr
            -123 vlineto
            83 callsubr
            124 vlineto
            7 -50 -63 6 -62 hhcurveto
            -151 -52 -80 -103 hvcurveto
            -9 callgsubr
            return
          </CharString>
          <CharString index="36">
            vlineto
            -103 55 -86 143 12 callsubr
            vhcurveto
            -74 callgsubr
            return
          </CharString>
          <CharString index="37">
            -103 46 -48 110 32 28 8 0 vhcurveto
            -59 callsubr
            return
          </CharString>
          <CharString index="38">
            rmoveto
            0 -17 -8 -25 -35 -7 17 25 vhcurveto
            135 vlineto
            25 7 17 35 5 5 -1 0 vhcurveto
            118 vlineto
            0 -13 3 -16 -110 -46 -54 -103 vhcurveto
            -146 -71 callgsubr
            315 callgsubr
            return
          </CharString>
          <CharString index="39">
            -121 75 -62 140 55 39 6 7 37 vhcurveto
            169 callsubr
            -34 -5 -50 hhcurveto
            -56 -29 12 47 hvcurveto
            return
          </CharString>
          <CharString index="40">
            -380 hlineto
            -107 callgsubr
            return
          </CharString>
          <CharString index="41">
            vlineto
            31 -6 16 0 vhcurveto
            return
          </CharString>
          <CharString index="42">
            -103 41 -56 123 29 22 4 3 15 vhcurveto
            2 callgsubr
            return
          </CharString>
          <CharString index="43">
            91 -69 callgsubr
            return
          </CharString>
          <CharString index="44">
            rmoveto
            46 268 48 -268 rlineto
            51 -287 rmoveto
            143 hlineto
            -134 693 rlineto
            -209 hlineto
            -136 -693 130 callgsubr
            27 160 rlineto
            137 hlineto
            endchar
          </CharString>
          <CharString index="45">
            rmoveto
            -26 -13 -13 -32 -32 -13 13 26 vhcurveto
            84 vlineto
            26 13 13 32 32 13 -13 -26 vhcurveto
            188 83 rmoveto
            134 -16 vlineto
            -54 -39 -27 -50 -15 hvcurveto
            12 -29 -36 6 -44 hhcurveto
            -134 -61 -59 -98 hvcurveto
            -86 vlineto
            -72 33 -51 70 -23 vhcurveto
            -40 -7 -16 -30 -36 vvcurveto
            -16 vlineto
            -64 50 -25 94 vhcurveto
            61 hlineto
            26 8 -6 -14 hvcurveto
            -5 vlineto
            -21 -18 -11 -73 vhcurveto
            -21 hlineto
            -77 -72 29 26 -33 hvcurveto
            -137 vlineto
            -20 27 66 -24 93 hhcurveto
            37 hlineto
            144 67 60 94 hvcurveto
            25 vlineto
            88 -51 38 -101 vhcurveto
            -55 hlineto
            -30 -10 5 17 12 7 10 19 hvcurveto
            0 vlineto
            127 3 58 59 96 vvcurveto
            86 vlineto
            31 -6 27 -13 22 vhcurveto
            1 7 7 1 8 hhcurveto
            endchar
          </CharString>
          <CharString index="46">
            -103 66 -76 143 62 45 9 13 37 vhcurveto
            -73 callgsubr
          </CharString>
          <CharString index="47">
            -7 15 -9 12 -12 8 rrcurveto
            32 22 11 42 46 vvcurveto
            27 vlineto
            105 -56 66 -153 -36 -32 -4 -8 -23 vhcurveto
            -127 vlineto
            9 33 32 3 25 hhcurveto
            54 19 -15 -35 hvcurveto
            -21 vlineto
            -32 -15 -14 -38 vhcurveto
            -59 -129 59 hlineto
            38 15 -16 -33 hvcurveto
            -41 vlineto
            -35 -1 -19 -15 -54 hhcurveto
            -25 -45 4 9 -33 245 callgsubr
            -8 23 45 -5 36 hhcurveto
            153 56 66 105 1 hvcurveto
            6 70 -213 -95 callgsubr
            return
          </CharString>
          <CharString index="48">
            -59 -87 callgsubr
            return
          </CharString>
          <CharString index="49">
            rmoveto
            -26 vlineto
            -66 31 -35 40 -27 vhcurveto
            68 -45 rlineto
            45 -30 12 -8 -21 vvcurveto
            -9 vlineto
            -23 -14 -15 -77 -42 -45 8 6 -20 vhcurveto
            -135 vlineto
            -8 33 34 -5 63 hhcurveto
            148 70 57 109 hvcurveto
            25 vlineto
            64 -33 36 -46 30 vhcurveto
            -81 54 rlineto
            -33 22 -7 8 16 vvcurveto
            8 vlineto
            24 12 14 59 42 53 -10 -5 15 vhcurveto
            133 vlineto
            9 -29 -52 6 -41 hhcurveto
            -149 -56 -58 -103 hvcurveto
            return
          </CharString>
          <CharString index="50">
            -85 callsubr
            3 return
          </CharString>
          <CharString index="51">
            -103 callsubr
            114 vlineto
            23 return
          </CharString>
          <CharString index="52">
            -39 callgsubr
            -48 vlineto
            return
          </CharString>
          <CharString index="53">
            0 10 -4 callsubr
            -119 vlineto
            -23 -7 -16 -33 -13 return
          </CharString>
          <CharString index="54">
            rmoveto
            -442 vlineto
            -6 -10 -20 -6 -20 hhcurveto
            -20 -8 10 16 hvcurveto
            428 -153 -458 vlineto
            -85 45 -47 84 55 36 16 11 20 vhcurveto
            -27 142 590 vlineto
            return
          </CharString>
          <CharString index="55">
            -103 66 -76 143 12 callsubr
            vhcurveto
            -101 callsubr
            return
          </CharString>
          <CharString index="56">
            vlineto
            -61 callsubr
          </CharString>
          <CharString index="57">
            -24 callgsubr
            vhcurveto
            return
          </CharString>
          <CharString index="58">
            -111 60 -87 156 40 55 6 13 37 vhcurveto
            -82 callsubr
          </CharString>
          <CharString index="59">
            1 callsubr
            vlineto
            endchar
          </CharString>
          <CharString index="60">
            hhcurveto
            -49 callgsubr
            return
          </CharString>
          <CharString index="61">
            rmoveto
            -516 vlineto
            -31 -16 -19 -42 -42 -15 20 30 vhcurveto
            516 -150 -524 vlineto
            -106 66 201 callgsubr
            67 73 106 vhcurveto
            524 vlineto
            return
          </CharString>
          <CharString index="62">
            -111 60 -87 156 40 55 6 13 37 vhcurveto
            -67 callgsubr
            return
          </CharString>
          <CharString index="63">
            152 callgsubr
            hlineto
            27 7 -9 -26 hvcurveto
            -18 123 31 vlineto
            91 -37 46 -102 vhcurveto
            -73 hlineto
            210 callsubr
            8 164 callsubr
            return
          </CharString>
          <CharString index="64">
            -123 -46 -60 -103 hvcurveto
            return
          </CharString>
          <CharString index="65">
            21 callgsubr
            -40 -32 -7 -14 -24 vhcurveto
            13 -24 -32 8 -41 hhcurveto
            -17 -22 -3 -2 -8 hvcurveto
            54 301 vlineto
            424 hmoveto
            117 -1148 -26 callsubr
            382 vlineto
            1 8 11 2 15 hhcurveto
            38 12 -16 -26 hvcurveto
            -141 -75 callsubr
          </CharString>
          <CharString index="66">
            -107 callsubr
            -315 -298 37 callsubr
            537 336 rmoveto
            -1192 -98 callgsubr
            358 74 callgsubr
            -23 -5 -16 -11 -9 vhcurveto
            47 -14 -36 34 -90 11 callgsubr
            52 34 13 21 22 vhcurveto
            -31 41 57 -16 69 -40 callgsubr
          </CharString>
          <CharString index="67">
            24 -12 -33 31 -66 hhcurveto
            return
          </CharString>
          <CharString index="68">
            vlineto
            -15 callsubr
            return
          </CharString>
          <CharString index="69">
            1 callgsubr
            -64 -99 -18 3 -14 124 callgsubr
            18 13 vvcurveto
            23 5 16 -10 callsubr
            return
          </CharString>
          <CharString index="70">
            9 callsubr
            endchar
          </CharString>
          <CharString index="71">
            rmoveto
            107 hlineto
            60 115 rlineto
            -73 hlineto
            -40 -54 -41 54 rlineto
            -73 hlineto
            return
          </CharString>
          <CharString index="72">
            rmoveto
            -44 -115 rlineto
            79 hlineto
            75 115 rlineto
            return
          </CharString>
          <CharString index="73">
            -64 callsubr
            66 -362 -26 callgsubr
          </CharString>
          <CharString index="74">
            -28 callgsubr
            -51 vlineto
            -92 61 -68 return
          </CharString>
          <CharString index="75">
            109 callgsubr
            -21 callsubr
            return
          </CharString>
          <CharString index="76">
            33 29 3 6 21 return
          </CharString>
          <CharString index="77">
            rmoveto
            0 -15 -5 -25 -35 -11 239 callsubr
            24 11 16 35 23 17 -5 0 vhcurveto
            return
          </CharString>
          <CharString index="78">
            -67 callgsubr
            35 vlineto
            -86 callsubr
            return
          </CharString>
          <CharString index="79">
            -20 callsubr
            151 return
          </CharString>
          <CharString index="80">
            -87 callgsubr
            vlineto
            endchar
          </CharString>
          <CharString index="81">
            157 callsubr
            -380 vlineto
            -107 callgsubr
            return
          </CharString>
          <CharString index="82">
            -29 -4 -33 hhcurveto
            -53 -27 -81 callsubr
            10 13 0 vhcurveto
            38 117 return
          </CharString>
          <CharString index="83">
            vlineto
            -49 callsubr
          </CharString>
          <CharString index="84">
            -137 vlineto
            -68 callsubr
            return
          </CharString>
          <CharString index="85">
            -100 callsubr
            vlineto
            endchar
          </CharString>
          <CharString index="86">
            257 callsubr
            -17 -19 -38 -29 -5 -45 -53 -51 9 8 -39 245 callgsubr
            -10 45 42 -7 56 hhcurveto
            145 69 53 114 hvcurveto
            7 vlineto
            -58 callgsubr
            return
          </CharString>
          <CharString index="87">
            -117 87 hlineto
            -33 callsubr
            return
          </CharString>
          <CharString index="88">
            -123 -50 -59 -93 hvcurveto
            return
          </CharString>
          <CharString index="89">
            315 callsubr
            -50 -29 hlineto
            -123 279 callgsubr
            66 -38 113 vhcurveto
            11 hlineto
            29 -2 5 -16 -19 vvcurveto
            -19 vlineto
            -25 -9 -14 -35 -23 -21 4 0 vhcurveto
            49 -138 -250 138 82 vlineto
            0 33 -6 37 return
          </CharString>
          <CharString index="90">
            vvcurveto
            23 3 16 33 33 3 -16 -23 vhcurveto
            return
          </CharString>
          <CharString index="91">
            -129 44 hlineto
            0 11 -4 callsubr
            -88 vlineto
            -39 -26 -13 -39 -17 -16 3 4 -15 vhcurveto
            3 15 1 17 17 vvcurveto
            97 vlineto
            118 -63 60 -133 -153 44 callgsubr
            143 42 35 6 12 28 vhcurveto
            -13 38 47 -10 56 197 callsubr
            return
          </CharString>
          <CharString index="92">
            -52 callsubr
            55 38 13 26 25 hvcurveto
            return
          </CharString>
          <CharString index="93">
            vlineto
            30 -9 17 0 vhcurveto
            return
          </CharString>
          <CharString index="94">
            21 callsubr
            endchar
          </CharString>
          <CharString index="95">
            rmoveto
            40 -54 rlineto
            73 hlineto
            -60 115 rlineto
            -107 hlineto
            -60 -115 rlineto
            73 hlineto
            return
          </CharString>
          <CharString index="96">
            rmoveto
            -23 -5 -16 -33 -33 -4 callgsubr
            287 76 vlineto
            return
          </CharString>
          <CharString index="97">
            25 25 5 -13 -23 vhcurveto
            -32 vlineto
            -42 -15 -19 -57 vhcurveto
            return
          </CharString>
          <CharString index="98">
            rmoveto
            -53 callgsubr
            -140 vlineto
            -40 -13 -20 -89 -89 -12 9 37 vhcurveto
            418 386 rmoveto
            117 -634 -117 91 231 callgsubr
            -23 vlineto
            -79 33 -48 79 -22 vhcurveto
            -50 -110 130 callgsubr
            36 96 rlineto
            1 hlineto
            2 hlineto
            36 -96 130 callgsubr
            -51 111 rlineto
            80 24 28 53 86 vvcurveto
            297 callgsubr
          </CharString>
          <CharString index="99">
            -37 -31 -29 -43 -46 vvcurveto
            -50 34 -30 61 vhcurveto
            24 69 -11 hlineto
            -19 -10 11 25 37 18 35 22 23 hvcurveto
            return
          </CharString>
          <CharString index="100">
            103 -56 60 -123 -123 -56 -60 -103 return
          </CharString>
          <CharString index="101">
            3 -15 -24 4 -27 hhcurveto
            return
          </CharString>
          <CharString index="102">
            hlineto
            -113 74 -71 139 37 36 4 6 29 vhcurveto
            -36 -22 callsubr
          </CharString>
          <CharString index="103">
            -13 -34 vvcurveto
            return
          </CharString>
          <CharString index="104">
            29 22 2 2 16 return
          </CharString>
          <CharString index="105">
            13 35 hvcurveto
            91 vlineto
            255 callgsubr
            -258 -126 60 hlineto
            0 -6 -19 -30 vvcurveto
            -97 vlineto
            -113 return
          </CharString>
          <CharString index="106">
            rmoveto
            -86 callsubr
            181 117 -584 105 callsubr
            363 110 rmoveto
            25 8 15 35 35 8 -15 -25 vhcurveto
            -49 vlineto
            -25 -8 -15 -35 -35 -8 15 25 vhcurveto
            218 235 rmoveto
            -1 14 334 callgsubr
            -116 vlineto
            -23 -6 -15 -33 return
          </CharString>
          <CharString index="107">
            76 -24 -46 23 -52 15 callgsubr
            -12 hlineto
            -98 131 rlineto
            68 -51 -39 31 -11 callgsubr
            21 -13 -29 24 hvcurveto
            59 -72 rlineto
            return
          </CharString>
          <CharString index="108">
            -103 35 -53 124 vhcurveto
            24 callgsubr
            return
          </CharString>
          <CharString index="109">
            rmoveto
            273 callgsubr
            -44 -35 -9 -16 -26 vhcurveto
            14 -27 -35 8 -44 250 callgsubr
            64 324 vlineto
            -464 -326 rmoveto
            -76 callgsubr
            686 117 rmoveto
            -982 170 callgsubr
            -177 vlineto
            -48 callsubr
          </CharString>
          <CharString index="110">
            42 35 526 rmoveto
            -363 vlineto
            -104 70 -64 153 94 47 21 21 39 vhcurveto
            335 -146 -234 vlineto
            -4 -8 -15 -4 -13 hhcurveto
            -56 -13 20 29 hvcurveto
            329 vlineto
            30 26 22 57 52 53 -10 -13 34 vhcurveto
            142 vlineto
            9 -27 -56 10 -58 hhcurveto
            -153 -80 -69 -103 hvcurveto
            return
          </CharString>
          <CharString index="111">
            rmoveto
            127 -107 rlineto
            -12 -11 -18 -6 -27 hhcurveto
            -53 -18 23 46 hvcurveto
            return
          </CharString>
          <CharString index="112">
            9 13 37 vhcurveto
            return
          </CharString>
          <CharString index="113">
            -47 callsubr
            -63 -103 return
          </CharString>
          <CharString index="114">
            104 callsubr
            33 2 13 186 callgsubr
            return
          </CharString>
          <CharString index="115">
            rmoveto
            -117 126 vlineto
            -55 callsubr
            -29 -7 -16 -19 -9 vhcurveto
            20 -25 -38 9 -54 hhcurveto
            -42 22 callgsubr
            return
          </CharString>
          <CharString index="116">
            -26 vlineto
            -32 callsubr
            return
          </CharString>
          <CharString index="117">
            -45 20 -33 64 62 21 33 45 46 -21 33 -62 -64 -20 -33 -46 vhcurveto
            return
          </CharString>
          <CharString index="118">
            -29 callgsubr
            -106 140 return
          </CharString>
          <CharString index="119">
            62 45 9 13 37 return
          </CharString>
          <CharString index="120">
            671 rmoveto
            return
          </CharString>
          <CharString index="121">
            103 -49 56 -118 -118 -53 -56 -103 vhcurveto
            return
          </CharString>
          <CharString index="122">
            297 26 callgsubr
            132 38 rmoveto
            -114 113 rlineto
            52 callsubr
            return
          </CharString>
          <CharString index="123">
            rmoveto
            155 140 117 -623 -117 343 -42 -97 vlineto
            -113 -56 -28 -96 hvcurveto
            -8 vlineto
            1 -44 16 -31 27 -16 rrcurveto
            -28 -19 -15 -23 -48 vvcurveto
            -53 vlineto
            -111 61 -66 185 87 95 12 13 37 -5 callgsubr
            -10 -48 -70 -12 -91 hhcurveto
            -96 -20 22 43 hvcurveto
            49 -74 callsubr
            54 hlineto
            -66 -95 115 -12 68 99 rlineto
            5 -6 2 -8 -13 vvcurveto
            -38 123 51 vlineto
            91 -37 34 -102 vhcurveto
            -173 hlineto
            210 callsubr
            7 164 callsubr
            endchar
          </CharString>
          <CharString index="124">
            rmoveto
            37 callgsubr
            71 256 callgsubr
            endchar
          </CharString>
          <CharString index="125">
            rmoveto
            192 callgsubr
            -634 283 callgsubr
            199 callsubr
            150 callsubr
            -15 -20 hvcurveto
            -4 vlineto
            -38 -29 -2 -45 -48 -53 8 9 -42 vhcurveto
            -127 vlineto
            -9 42 42 -8 59 hhcurveto
            145 69 53 114 hvcurveto
            -12 162 rmoveto
            248 callgsubr
          </CharString>
          <CharString index="126">
            rmoveto
            -44 29 -36 52 53 28 36 44 44 -28 35 -53 -52 -29 -35 -44 vhcurveto
            109 hmoveto
            -18 -11 -11 -17 -17 -11 11 18 16 11 12 17 17 11 -12 -16 vhcurveto
            return
          </CharString>
          <CharString index="127">
            -83 callgsubr
            66 135 callgsubr
            hlineto
            endchar
          </CharString>
          <CharString index="128">
            -137 vlineto
            85 callgsubr
            return
          </CharString>
          <CharString index="129">
            rmoveto
            117 -673 -117 299 -370 vlineto
            0 -17 -8 -25 -35 -7 17 25 vhcurveto
            125 89 callsubr
            -111 vlineto
            223 callsubr
            -141 rlineto
            151 hlineto
            78 136 rlineto
            1 -94 137 380 63 callsubr
            54 vlineto
            endchar
          </CharString>
          <CharString index="130">
            6 10 18 7 20 hhcurveto
            19 7 -8 -16 hvcurveto
            -430 153 467 302 callsubr
            -49 -42 -18 -11 -20 vhcurveto
            return
          </CharString>
          <CharString index="131">
            hhcurveto
            -31 callsubr
            hvcurveto
            95 callgsubr
          </CharString>
          <CharString index="132">
            -6 callsubr
            -119 274 callgsubr
            return
          </CharString>
          <CharString index="133">
            rmoveto
            132 -111 rlineto
            -9 -12 -18 -5 -26 hhcurveto
            -58 -18 23 46 hvcurveto
            return
          </CharString>
          <CharString index="134">
            hlineto
            31 callsubr
          </CharString>
          <CharString index="135">
            rmoveto
            -128 107 99 callsubr
            53 18 -23 -46 hvcurveto
            -142 -29 4 callsubr
            return
          </CharString>
          <CharString index="136">
            17 -11 callgsubr
            23 -11 -31 22 hvcurveto
            52 -72 rlineto
            return
          </CharString>
          <CharString index="137">
            -7 callsubr
            -16 return
          </CharString>
          <CharString index="138">
            0 11 -13 -101 callgsubr
            81 -371 178 callgsubr
          </CharString>
          <CharString index="139">
            rmoveto
            10 -57 -39 -7 -46 16 -142 48 rcurveline
            -109 37 -106 -27 -132 vvcurveto
            -31 5 -29 0 vhcurveto
            135 hlineto
            -10 57 39 7 46 -16 142 -48 rcurveline
            109 -37 106 27 132 vvcurveto
            34 -6 26 0 vhcurveto
            return
          </CharString>
          <CharString index="140">
            vlineto
            -89 callgsubr
            94 173 callsubr
            36 13 -20 -32 hvcurveto
            -43 vlineto
            -89 callsubr
            vlineto
            endchar
          </CharString>
          <CharString index="141">
            vlineto
            -71 23 -38 51 -16 vhcurveto
            -91 -165 rlineto
            150 hlineto
            89 160 rlineto
            0 vlineto
            -97 140 278 -140 -78 vlineto
            -3 -10 -12 -3 -17 hhcurveto
            -35 -8 14 24 hvcurveto
            99 177 callsubr
          </CharString>
          <CharString index="142">
            -229 rmoveto
            -129 171 rlineto
            157 callgsubr
            return
          </CharString>
          <CharString index="143">
            1 vlineto
            125 -66 callsubr
            return
          </CharString>
          <CharString index="144">
            rmoveto
            -25 -8 -15 -35 -35 -8 239 callsubr
            25 8 15 35 35 8 -15 -25 vhcurveto
            return
          </CharString>
          <CharString index="145">
            -129 71 -39 122 29 26 3 5 17 vhcurveto
            -61 133 554 82 return
          </CharString>
          <CharString index="146">
            rmoveto
            -42 16 -33 59 57 200 callsubr
            -57 106 callsubr
            return
          </CharString>
          <CharString index="147">
            -5 41 685 rmoveto
            -141 vlineto
            13 34 34 5 52 hhcurveto
            55 17 -20 -28 hvcurveto
            -47 vlineto
            -33 -14 -16 -37 vhcurveto
            -76 -140 78 hlineto
            37 14 -8 -33 hvcurveto
            -58 vlineto
            -29 -17 -19 -54 -61 -43 11 15 -35 vhcurveto
            -142 vlineto
            -8 19 49 -13 74 hhcurveto
            152 67 65 103 hvcurveto
            96 vlineto
            66 -29 27 -41 4 vhcurveto
            41 10 27 39 58 vvcurveto
            69 vlineto
            104 -69 64 -152 -58 -37 -5 -9 -27 vhcurveto
            endchar
          </CharString>
          <CharString index="148">
            rmoveto
            -32 -185 rlineto
            -29 -165 -5 -121 0 vvcurveto
            0 -3 119 -32 170 vhcurveto
            -34 182 rlineto
            -148 hlineto
            118 -590 rlineto
            52 hlineto
            -28 -149 rlineto
            146 hlineto
            140 739 rlineto
            return
          </CharString>
          <CharString index="149">
            30 16 19 57 45 46 -7 -10 33 vhcurveto
            138 vlineto
            8 -30 -47 6 -49 hhcurveto
            -153 -70 -66 -103 hvcurveto
            return
          </CharString>
          <CharString index="150" raw="1">
            6a61619b 6ac6c59c acb5b50b 
          </CharString>
          <CharString index="151">
            38 30 524 rmoveto
            -137 vlineto
            -99 50 -61 109 45 30 6 6 15 vhcurveto
            -59 vlineto
            -29 -21 -19 -54 -61 -52 11 15 -35 vhcurveto
            -142 vlineto
            -8 19 58 -13 74 hhcurveto
            152 70 65 103 hvcurveto
            361 vlineto
            106 -58 73 -141 -141 -59 -73 -106 vhcurveto
            249 -3 rmoveto
            -156 vlineto
            0 -23 -9 -29 -32 -15 16 33 vhcurveto
            116 vlineto
            31 9 19 41 41 8 -20 -30 vhcurveto
            endchar
          </CharString>
          <CharString index="152">
            6 callgsubr
            0 callgsubr
            116 237 callsubr
            6 hlineto
            18 11 -6 -8 6 hvcurveto
            -49 vlineto
            -89 callsubr
            vlineto
            endchar
          </CharString>
          <CharString index="153">
            4 -9 2 -16 -23 vvcurveto
            -83 vlineto
            -23 -3 -16 -36 -24 -15 5 0 vhcurveto
            77 -135 -283 135 81 vlineto
            -6 23 15 -2 29 hhcurveto
            90 61 49 110 hvcurveto
            89 vlineto
            20 -2 19 -5 11 vhcurveto
            return
          </CharString>
          <CharString index="154">
            -380 hlineto
            0 -17 -8 -25 -35 -7 17 25 vhcurveto
            135 vlineto
            25 7 17 35 5 5 -1 0 -5 callgsubr
            0 -13 3 -16 return
          </CharString>
          <CharString index="155">
            rmoveto
            -49 -115 rlineto
            69 hlineto
            80 115 rlineto
            -220 hmoveto
            -49 -115 rlineto
            69 hlineto
            80 115 rlineto
            return
          </CharString>
          <CharString index="156">
            rmoveto
            -33 -10 15 23 hvcurveto
            79 vlineto
            121 -112 rlineto
            -3 -5 -7 -2 -10 hhcurveto
            -319 327 rmoveto
            -117 80 -172 vlineto
            -41 12 -28 22 -19 vhcurveto
            -21 -19 -13 -29 -42 vvcurveto
            -50 vlineto
            return
          </CharString>
          <CharString index="157">
            -90 callsubr
            42 callgsubr
          </CharString>
          <CharString index="158">
            155 callsubr
            113 callgsubr
          </CharString>
          <CharString index="159">
            8 11 16 5 25 hhcurveto
            24 18 -4 -7 20 hvcurveto
            return
          </CharString>
          <CharString index="160">
            rmoveto
            -117 243 78 callsubr
            -129 vlineto
            -9 -37 -41 -6 -45 6 callsubr
            -14 3 -15 124 callgsubr
            20 14 179 callsubr
            return
          </CharString>
          <CharString index="161">
            rmoveto
            -87 vlineto
            9 37 23 4 47 hhcurveto
            23 7 -9 -18 hvcurveto
            -47 vlineto
            -15 -4 -11 -23 vhcurveto
            -50 -87 50 hlineto
            23 4 -10 -16 hvcurveto
            -48 vlineto
            -18 -7 -9 -23 -47 -23 4 9 -37 vhcurveto
            -87 vlineto
            -5 15 26 -7 70 hhcurveto
            83 38 40 70 hvcurveto
            51 vlineto
            36 -12 22 -20 13 vhcurveto
            22 14 10 23 31 vvcurveto
            50 296 callsubr
          </CharString>
          <CharString index="162">
            41 271 590 -53 callsubr
            return
          </CharString>
          <CharString index="163">
            -17 callsubr
            -74 -39 vlineto
            return
          </CharString>
          <CharString index="164">
            91 -58 53 -100 -59 -29 -27 -22 -11 vhcurveto
            22 -11 -30 27 -58 hhcurveto
            -100 -54 -53 -91 hvcurveto
            -70 vlineto
            -109 53 -53 123 13 16 2 1 7 vhcurveto
            113 vlineto
            -8 -14 -1 -10 hhcurveto
            -47 -9 23 29 hvcurveto
            60 vlineto
            21 5 14 29 30 5 -14 -21 vhcurveto
            -36 124 36 vlineto
            21 5 14 30 29 5 -14 -21 vhcurveto
            -51 vlineto
            -89 -9 -46 -52 -86 vvcurveto
            return
          </CharString>
          <CharString index="165">
            -47 callgsubr
            150 268 callgsubr
            return
          </CharString>
          <CharString index="166">
            -426 -470 120 callgsubr
            136 260 callgsubr
            231 -115 rmoveto
            1 5 4 0 3 hhcurveto
            20 9 -11 -30 11 hvcurveto
            26 -72 rlineto
            119 hlineto
            269 callsubr
            return
          </CharString>
          <CharString index="167">
            166 rmoveto
            -7 -30 -23 -3 -37 hhcurveto
            -71 -17 19 31 hvcurveto
            return
          </CharString>
          <CharString index="168">
            rmoveto
            -46 -102 rlineto
            -60 -127 53 -316 hlineto
            -95 38 -61 119 55 34 16 0 vhcurveto
            134 vlineto
            0 -22 -14 -35 -27 -11 14 22 vhcurveto
            300 89 127 -89 102 vlineto
            return
          </CharString>
          <CharString index="169">
            rmoveto
            -24 -9 -18 -35 -35 -9 18 24 vhcurveto
            193 vlineto
            24 9 18 35 35 9 -18 -24 vhcurveto
            return
          </CharString>
          <CharString index="170">
            hlineto
            7 callgsubr
            return
          </CharString>
          <CharString index="171">
            -218 -78 60 vlineto
            -21 callgsubr
            -14 2 -8 117 callgsubr
            -2 9 8 -17 callsubr
            -55 -39 vlineto
            return
          </CharString>
          <CharString index="172">
            16 49 676 rmoveto
            -144 vlineto
            15 35 43 12 61 hhcurveto
            55 12 -20 -28 hvcurveto
            -14 vlineto
            -44 -7 -18 -30 -23 vhcurveto
            -100 -86 rlineto
            -47 -36 -36 -47 -80 vvcurveto
            -163 363 132 -210 13 vlineto
            43 3 11 52 44 vhcurveto
            90 76 rlineto
            48 36 26 52 64 vvcurveto
            59 vlineto
            103 -65 65 -152 -74 -48 -15 -7 -19 vhcurveto
            endchar
          </CharString>
          <CharString index="173">
            rmoveto
            75 -115 rlineto
            79 hlineto
            -44 115 rlineto
            endchar
          </CharString>
          <CharString index="174">
            69 305 693 -46 callsubr
            return
          </CharString>
          <CharString index="175">
            rmoveto
            26 185 callgsubr
            441 vlineto
            23 callsubr
            return
          </CharString>
          <CharString index="176">
            rmoveto
            -44 -23 -14 -29 -46 hvcurveto
            40 185 callgsubr
            434 vlineto
            10 21 36 10 41 hhcurveto
            23 139 hlineto
            return
          </CharString>
          <CharString index="177">
            rmoveto
            83 callsubr
            return
          </CharString>
          <CharString index="178">
            hlineto
            -108 -44 -62 -80 hvcurveto
            -18 vlineto
            -41 11 -25 23 -16 vhcurveto
            -26 -17 -13 -29 -47 vvcurveto
            -19 vlineto
            -78 54 -52 137 138 52 42 113 1 vhcurveto
            20 1 15 3 10 2 rrcurveto
            57 callgsubr
          </CharString>
          <CharString index="179">
            298 callsubr
            -169 240 callsubr
            150 237 callsubr
            return
          </CharString>
          <CharString index="180">
            -55 hlineto
            -6 callsubr
            return
          </CharString>
          <CharString index="181">
            507 rmoveto
            27 -6 20 0 vhcurveto
            72 -330 hlineto
            -6 -23 -24 -2 -28 -93 callgsubr
            -143 124 rmoveto
            0 7 -13 -34 vvcurveto
            -48 vlineto
            -50 -21 -13 -68 vhcurveto
            -24 -126 230 callsubr
            return
          </CharString>
          <CharString index="182">
            38 callsubr
            vlineto
            endchar
          </CharString>
          <CharString index="183">
            -29 callsubr
            250 -63 hlineto
            0 -26 5 -33 -123 -29 -59 -103 vhcurveto
            -78 vlineto
            -103 36 -54 123 34 18 6 0 vhcurveto
            -105 136 554 82 vlineto
            endchar
          </CharString>
          <CharString index="184">
            302 callgsubr
            -139 vlineto
            151 callsubr
            return
          </CharString>
          <CharString index="185">
            -55 vlineto
            25 callsubr
            return
          </CharString>
          <CharString index="186">
            rmoveto
            -43 280 callsubr
            43 43 13 24 31 32 -13 24 -43 hvcurveto
            endchar
          </CharString>
          <CharString index="187">
            rmoveto
            222 callsubr
            183 117 -507 -117 184 -52 vlineto
            108 callgsubr
            -135 -2 62 callsubr
            endchar
          </CharString>
          <CharString index="188">
            -50 -21 -13 -68 vhcurveto
            return
          </CharString>
          <CharString index="189">
            -29 -18 -15 -32 -41 56 callgsubr
            return
          </CharString>
          <CharString index="190">
            112 callsubr
            -8 vhcurveto
            return
          </CharString>
          <CharString index="191">
            81 callsubr
            -24 return
          </CharString>
          <CharString index="192">
            -78 callgsubr
            143 return
          </CharString>
          <CharString index="193">
            rmoveto
            290 callsubr
            117 -673 -117 452 143 callsubr
            endchar
          </CharString>
          <CharString index="194">
            -152 354 398 rmoveto
            127 callsubr
            -120 333 330 callsubr
            -167 hlineto
            -91 callgsubr
            return
          </CharString>
          <CharString index="195">
            hhcurveto
            -174 23 callgsubr
            27 hlineto
            return
          </CharString>
          <CharString index="196">
            vlineto
            25 7 17 35 5 5 -1 0 -5 callgsubr
            0 -13 3 -16 -110 -46 -54 -103 vhcurveto
            return
          </CharString>
          <CharString index="197">
            rmoveto
            -29 -15 -11 -20 -17 vhcurveto
            -21 17 -14 11 29 vvcurveto
            return
          </CharString>
          <CharString index="198">
            191 callgsubr
            hlineto
            -104 callgsubr
            return
          </CharString>
          <CharString index="199">
            63 35 524 -73 callsubr
            return
          </CharString>
          <CharString index="200">
            265 747 rmoveto
            -157 -44 vlineto
            -130 -56 -72 -107 hvcurveto
            -279 vlineto
            -84 43 -52 86 60 35 32 14 11 vhcurveto
            -42 147 747 vlineto
            -151 -602 rmoveto
            -6 -10 -22 -6 -20 hhcurveto
            -20 -8 10 16 hvcurveto
            247 vlineto
            35 17 15 30 vhcurveto
            33 hlineto
            return
          </CharString>
          <CharString index="201">
            rmoveto
            -25 -6 -17 -35 -35 -6 17 25 vhcurveto
            171 vlineto
            25 6 17 35 35 6 -17 -25 vhcurveto
            return
          </CharString>
          <CharString index="202">
            -49 callgsubr
            -63 -103 vhcurveto
            -29 133 34 vlineto
            196 callgsubr
            return
          </CharString>
          <CharString index="203">
            381 rmoveto
            -78 1 hlineto
            125 -66 callsubr
            84 hlineto
            -215 220 callgsubr
            return
          </CharString>
          <CharString index="204">
            44 14 22 32 33 -14 22 -44 -45 -13 -22 -33 -32 13 -22 45 hvcurveto
            return
          </CharString>
          <CharString index="205">
            41 17 21 61 36 35 -10 0 vhcurveto
            -48 vlineto
            return
          </CharString>
          <CharString index="206">
            rlineto
            13 11 18 6 28 hhcurveto
            return
          </CharString>
          <CharString index="207">
            -117 134 -207 hlineto
            -91 callgsubr
            219 84 vlineto
            -33 callsubr
            return
          </CharString>
          <CharString index="208">
            rmoveto
            -117 103 vlineto
            -43 callgsubr
            return
          </CharString>
          <CharString index="209">
            23 5 13 -10 callsubr
            -133 -131 hlineto
            return
          </CharString>
          <CharString index="210">
            -113 -56 -39 -103 hvcurveto
            return
          </CharString>
          <CharString index="211">
            -107 callgsubr
            350 vlineto
            3 10 return
          </CharString>
          <CharString index="212">
            187 callgsubr
            -45 callsubr
            return
          </CharString>
          <CharString index="213">
            339 callgsubr
            vhcurveto
            return
          </CharString>
          <CharString index="214">
            -40 -34 -10 0 329 callgsubr
            0 19 9 28 44 21 310 callgsubr
            10 37 vhcurveto
            2 139 callsubr
            121 vlineto
            34 2 25 49 vhcurveto
            return
          </CharString>
          <CharString index="215">
            33 -50 callsubr
            return
          </CharString>
          <CharString index="216">
            -99 vlineto
            -46 10 -32 21 -21 vhcurveto
            -16 -17 -10 -24 -34 vvcurveto
            -54 vlineto
            -103 52 -46 123 123 59 51 104 vhcurveto
            258 -140 -64 vlineto
            -3 -9 -16 -2 -16 hhcurveto
            -35 -6 14 24 hvcurveto
            89 177 callsubr
          </CharString>
          <CharString index="217">
            -117 293 211 callgsubr
            return
          </CharString>
          <CharString index="218">
            14 callsubr
            -29 vlineto
            return
          </CharString>
          <CharString index="219">
            -23 -6 -16 -33 -12 -10 2 2 return
          </CharString>
          <CharString index="220">
            vhcurveto
            124 vlineto
            return
          </CharString>
          <CharString index="221">
            488 rmoveto
            139 callgsubr
            return
          </CharString>
          <CharString index="222">
            122 callgsubr
            vlineto
            return
          </CharString>
          <CharString index="223">
            rmoveto
            186 87 117 return
          </CharString>
          <CharString index="224">
            140 366 hlineto
            -93 callsubr
            return
          </CharString>
          <CharString index="225">
            rmoveto
            -126 156 vlineto
            -159 -372 rlineto
            -92 324 126 -158 vlineto
            155 374 rlineto
            90 vlineto
            return
          </CharString>
          <CharString index="226">
            43 175 397 rmoveto
            112 -98 rlineto
            -51 vlineto
            -7 -22 -14 -3 -24 hhcurveto
            -36 -16 15 25 hvcurveto
            112 276 rmoveto
            -158 vlineto
            -112 97 rlineto
            61 vlineto
            -217 117 rmoveto
            225 callsubr
            vlineto
            return
          </CharString>
          <CharString index="227">
            hlineto
            -33 -6 10 19 hvcurveto
            5 vlineto
            15 1 8 7 30 hhcurveto
            169 170 return
          </CharString>
          <CharString index="228">
            79 hlineto
            -21 callgsubr
            return
          </CharString>
          <CharString index="229">
            -40 callsubr
            -113 return
          </CharString>
          <CharString index="230">
            27 callgsubr
            90 vlineto
            23 5 16 31 vhcurveto
            29 hlineto
            4 -10 3 -25 -26 vvcurveto
            return
          </CharString>
          <CharString index="231">
            209 callgsubr
            78 171 callsubr
          </CharString>
          <CharString index="232">
            vlineto
            50 callsubr
          </CharString>
          <CharString index="233">
            vlineto
            -25 -9 -14 -35 -23 -21 4 0 vhcurveto
            49 -138 -250 138 82 vlineto
            0 33 -6 37 95 return
          </CharString>
          <CharString index="234">
            -309 -398 273 callsubr
            45 59 48 61 29 47 25 54 rlinecurve
            return
          </CharString>
          <CharString index="235">
            446 40 callgsubr
            return
          </CharString>
          <CharString index="236">
            -44 callsubr
            187 251 callgsubr
            return
          </CharString>
          <CharString index="237">
            71 -47 -46 29 callsubr
            -80 -92 callsubr
            return
          </CharString>
          <CharString index="238">
            rmoveto
            -1 8 334 callgsubr
            -136 vlineto
            -23 -6 -15 -33 vhcurveto
            -20 -17 5 -2 hhcurveto
            85 -7 -56 51 -112 78 callgsubr
            84 38 117 return
          </CharString>
          <CharString index="239">
            -29 callsubr
            377 117 hlineto
            endchar
          </CharString>
          <CharString index="240">
            rmoveto
            -76 callgsubr
            -332 301 callgsubr
            return
          </CharString>
          <CharString index="241">
            -39 hlineto
            -19 callsubr
            return
          </CharString>
          <CharString index="242">
            rmoveto
            -479 vlineto
            -6 -24 -20 -4 -30 hhcurveto
            -45 -29 -81 callsubr
            16 13 0 vhcurveto
            56 117 return
          </CharString>
          <CharString index="243">
            323 rmoveto
            158 callgsubr
            117 return
          </CharString>
          <CharString index="244">
            234 callsubr
            -85 -46 callgsubr
          </CharString>
          <CharString index="245">
            13 vlineto
            93 -55 39 -93 -31 -24 -8 0 vhcurveto
            -103 vlineto
            0 12 8 return
          </CharString>
          <CharString index="246">
            vlineto
            37 15 5 33 vhcurveto
            72 122 -77 -14 callgsubr
            return
          </CharString>
          <CharString index="247">
            -426 -338 784 rmoveto
            1 10 8 0 8 hhcurveto
            31 23 -11 -31 22 hvcurveto
            52 -72 rlineto
            142 hlineto
            190 callgsubr
            return
          </CharString>
          <CharString index="248">
            -55 callsubr
            -25 -5 -15 -13 -10 vhcurveto
            55 -27 -54 27 -77 hhcurveto
            -174 hlineto
            return
          </CharString>
          <CharString index="249">
            hlineto
            -341 vmoveto
            -95 callsubr
            return
          </CharString>
          <CharString index="250">
            -63 -322 158 callsubr
            return
          </CharString>
          <CharString index="251">
            0 11 -4 callsubr
            -38 -99 callsubr
            52 -14 callsubr
            return
          </CharString>
          <CharString index="252">
            -35 callsubr
            endchar
          </CharString>
          <CharString index="253">
            hhcurveto
            -9 hlineto
            -107 -50 241 callgsubr
            -67 -82 -92 callsubr
            return
          </CharString>
          <CharString index="254">
            37 258 533 rmoveto
            -285 -121 vlineto
            321 hmoveto
            -65 445 -191 hlineto
            -192 -437 rlineto
            -139 242 -117 141 117 65 vlineto
            endchar
          </CharString>
          <CharString index="255">
            -113 -56 -35 -96 hvcurveto
            -18 208 callsubr
            return
          </CharString>
          <CharString index="256">
            122 -183 -122 -183 rlineto
            150 hlineto
            121 183 -121 183 rlineto
            return
          </CharString>
          <CharString index="257">
            -26 250 callsubr
            257 callsubr
            return
          </CharString>
          <CharString index="258">
            -47 13 -30 26 -17 vhcurveto
            282 callsubr
            return
          </CharString>
          <CharString index="259">
            -138 104 -79 160 return
          </CharString>
          <CharString index="260">
            -61 -60 -103 hvcurveto
            return
          </CharString>
          <CharString index="261">
            vlineto
            7 -50 -63 6 -62 hhcurveto
            -151 -52 -80 -103 hvcurveto
            -7 callgsubr
            return
          </CharString>
          <CharString index="262">
            153 callgsubr
            39 26 8 0 vhcurveto
            return
          </CharString>
          <CharString index="263">
            58 200 callsubr
            -58 return
          </CharString>
          <CharString index="264">
            -117 287 return
          </CharString>
          <CharString index="265">
            173 callgsubr
            -88 -99 callsubr
            return
          </CharString>
          <CharString index="266">
            vlineto
            -103 45 -58 113 115 callsubr
            -35 -14 6 32 hvcurveto
            return
          </CharString>
          <CharString index="267">
            -58 -25 -24 -30 -20 return
          </CharString>
          <CharString index="268">
            -59 vlineto
            184 callgsubr
            -123 -64 -39 -129 hvcurveto
            -117 vlineto
            38 callsubr
            return
          </CharString>
          <CharString index="269">
            vhcurveto
            -5 -26 -27 -4 -31 hhcurveto
            -53 -27 -81 callsubr
            10 13 0 vhcurveto
            return
          </CharString>
          <CharString index="270">
            rmoveto
            -42 280 callsubr
            42 43 13 24 31 32 -13 24 -43 hvcurveto
            endchar
          </CharString>
          <CharString index="271">
            vlineto
            17 9 6 20 vhcurveto
            return
          </CharString>
          <CharString index="272">
            21 callgsubr
            -98 -47 -42 -82 -9 vhcurveto
            return
          </CharString>
          <CharString index="273">
            rmoveto
            -117 247 254 callgsubr
            -79 -46 -25 -47 -23 hvcurveto
            return
          </CharString>
          <CharString index="274">
            -10 -33 -48 -5 -46 hhcurveto
            -56 -17 19 29 hvcurveto
            return
          </CharString>
          <CharString index="275" raw="1">
            fcbe270a 0b  
          </CharString>
          <CharString index="276">
            125 vlineto
            -6 -37 return
          </CharString>
          <CharString index="277">
            -147 70 -56 163 60 33 2 8 49 vhcurveto
            126 vlineto
            -7 -46 -36 -3 -60 hhcurveto
            -63 -33 21 58 hvcurveto
            95 vlineto
            -4 16 30 -3 21 hhcurveto
            return
          </CharString>
          <CharString index="278">
            -554 -22 callsubr
          </CharString>
          <CharString index="279">
            9 -33 -29 6 -63 hhcurveto
            -129 -67 -58 -116 hvcurveto
            return
          </CharString>
          <CharString index="280">
            -69 callgsubr
            27 hlineto
            return
          </CharString>
          <CharString index="281">
            129 callgsubr
            143 return
          </CharString>
          <CharString index="282">
            -16 -23 vhcurveto
            -105 vlineto
            return
          </CharString>
          <CharString index="283">
            -158 rmoveto
            118 -120 rlineto
            -26 -5 -25 -12 -30 hhcurveto
            -48 -10 15 33 hvcurveto
            268 vmoveto
            118 -169 hlineto
            -118 126 rlineto
            return
          </CharString>
          <CharString index="284">
            76 callgsubr
            endchar
          </CharString>
          <CharString index="285">
            24 callgsubr
            vlineto
            endchar
          </CharString>
          <CharString index="286">
            vvcurveto
            23 5 13 -10 callsubr
            return
          </CharString>
          <CharString index="287">
            -1 0 vhcurveto
            117 vlineto
            0 return
          </CharString>
          <CharString index="288">
            vlineto
            103 callsubr
            return
          </CharString>
          <CharString index="289">
            -344 hlineto
            0 -17 -8 -25 -35 -7 17 25 vhcurveto
            99 vlineto
            25 7 17 35 5 5 -1 0 -5 callgsubr
            0 -13 3 -16 return
          </CharString>
          <CharString index="290">
            -403 -693 rlineto
            95 hlineto
            403 693 rlineto
            return
          </CharString>
          <CharString index="291">
            491 rmoveto
            -227 hlineto
            return
          </CharString>
          <CharString index="292">
            rmoveto
            -77 267 77 vlineto
            return
          </CharString>
          <CharString index="293">
            285 callgsubr
            -693 return
          </CharString>
          <CharString index="294">
            127 335 rlineto
            -160 hlineto
            -114 -312 rlineto
            312 -150 -693 150 331 vlineto
            119 -331 rlineto
            return
          </CharString>
          <CharString index="295">
            226 callgsubr
            207 callgsubr
            return
          </CharString>
          <CharString index="296">
            56 callgsubr
            67 -14 44 -40 21 vhcurveto
            75 vlineto
            endchar
          </CharString>
          <CharString index="297">
            42 11 14 0 vhcurveto
            return
          </CharString>
          <CharString index="298">
            rmoveto
            138 callgsubr
            -228 vlineto
            224 445 rlineto
            121 vlineto
            return
          </CharString>
          <CharString index="299">
            vlineto
            -104 68 -64 153 51 51 7 8 29 vhcurveto
            135 vlineto
            167 callsubr
            endchar
          </CharString>
          <CharString index="300">
            -91 callsubr
            hlineto
            endchar
          </CharString>
          <CharString index="301">
            165 callgsubr
            276 return
          </CharString>
          <CharString index="302">
            0 vhcurveto
            140 return
          </CharString>
          <CharString index="303">
            -30 5 46 hvcurveto
            -140 -15 hlineto
            -113 83 -44 138 vhcurveto
            return
          </CharString>
          <CharString index="304">
            hhcurveto
            125 74 55 119 hvcurveto
            102 -14 callsubr
            return
          </CharString>
          <CharString index="305">
            vlineto
            -7 callsubr
            return
          </CharString>
          <CharString index="306">
            hlineto
            103 callsubr
            return
          </CharString>
          <CharString index="307">
            17 33 42 42 -17 33 return
          </CharString>
          <CharString index="308">
            vlineto
            77 4 35 41 77 vvcurveto
            92 336 callsubr
            -110 rmoveto
            81 callsubr
            return
          </CharString>
          <CharString index="309">
            -108 64 -60 123 56 50 10 0 vhcurveto
            127 vlineto
            0 -54 -9 -50 -29 -22 8 32 31 22 9 28 return
          </CharString>
          <CharString index="310">
            19 -4 17 -8 15 vhcurveto
            155 hlineto
            -226 -301 rlineto
            156 hlineto
            53 73 32 44 15 28 15 41 rlinecurve
            return
          </CharString>
          <CharString index="311">
            rmoveto
            -693 351 12 callgsubr
            201 330 callgsubr
          </CharString>
          <CharString index="312">
            6 13 35 vhcurveto
            return
          </CharString>
          <CharString index="313">
            vvcurveto
            -103 58 -55 123 43 35 2 5 31 vhcurveto
            126 vlineto
            -5 -40 -21 0 -43 hhcurveto
            -28 -18 2 25 return
          </CharString>
          <CharString index="314">
            rmoveto
            172 121 117 -552 -117 293 -55 -34 vlineto
            -126 -51 -44 -105 hvcurveto
            -153 vlineto
            return
          </CharString>
          <CharString index="315">
            vlineto
            217 callsubr
            return
          </CharString>
          <CharString index="316">
            6 callgsubr
            -15 -36 -29 229 callsubr
            -19 27 41 hvcurveto
            return
          </CharString>
          <CharString index="317">
            -20 285 callsubr
            return
          </CharString>
          <CharString index="318">
            -55 callsubr
            -16 -2 -12 -5 -10 vhcurveto
            26 -29 -45 15 -65 hhcurveto
            570 209 rmoveto
            return
          </CharString>
          <CharString index="319">
            vlineto
            -96 39 -33 70 -10 vhcurveto
            -103 -127 337 callsubr
            106 130 rlineto
            -93 133 554 82 return
          </CharString>
          <CharString index="320">
            103 callgsubr
            endchar
          </CharString>
          <CharString index="321">
            -19 14 30 hvcurveto
            131 vlineto
            30 18 13 return
          </CharString>
          <CharString index="322">
            7 vlineto
            106 -58 36 -128 vhcurveto
            -24 hlineto
            return
          </CharString>
          <CharString index="323">
            hhcurveto
            -46 -31 9 35 hvcurveto
            33 vlineto
            30 21 12 38 vhcurveto
            return
          </CharString>
          <CharString index="324">
            1 -44 16 -27 27 -16 224 callgsubr
            return
          </CharString>
          <CharString index="325">
            0 -53 10 -65 vhcurveto
            -117 vlineto
            65 53 10 0 hvcurveto
            return
          </CharString>
          <CharString index="326">
            316 434 rmoveto
            -131 120 rlineto
            131 hlineto
            return
          </CharString>
          <CharString index="327">
            -269 hlineto
            -103 43 -67 150 return
          </CharString>
          <CharString index="328">
            223 callgsubr
            hlineto
            return
          </CharString>
          <CharString index="329">
            81 -35 50 -74 17 vhcurveto
            52 return
          </CharString>
          <CharString index="330">
            -72 22 -45 51 -21 vhcurveto
            -87 return
          </CharString>
          <CharString index="331">
            -117 78 -296 return
          </CharString>
          <CharString index="332">
            -117 77 -282 return
          </CharString>
          <CharString index="333">
            61 145 rmoveto
            -46 -278 rlineto
            80 hlineto
            31 41 73 114 66 vvcurveto
            36 -19 21 -44 vhcurveto
            return
          </CharString>
          <CharString index="334">
            vlineto
            -341 vmoveto
            -95 callsubr
            return
          </CharString>
          <CharString index="335">
            -103 35 -53 124 vhcurveto
            -47 callgsubr
            150 vlineto
            29 17 20 42 return
          </CharString>
          <CharString index="336">
            -11 -56 hhcurveto
            -62 return
          </CharString>
          <CharString index="337">
            hlineto
            -89 callsubr
            117 return
          </CharString>
          <CharString index="338">
            184 callsubr
            -43 callsubr
            return
          </CharString>
          <CharString index="339">
            -127 61 -62 149 57 42 10 10 30 vhcurveto
            return
          </CharString>
          <CharString index="340">
            -42 16 -33 59 58 17 33 42 42 -16 33 -58 return
          </CharString>
          <CharString index="341">
            152 callsubr
            48 32 3 8 37 vhcurveto
            return
          </CharString>
          <CharString index="342">
            -53 124 8 12 1 1 11 vhcurveto
            return
          </CharString>
          <CharString index="343">
            28 14 14 40 40 14 -14 -28 vhcurveto
            return
          </CharString>
          <CharString index="344">
            vlineto
            29 11 20 42 vhcurveto
            return
          </CharString>
          <CharString index="345">
            4 8 2 12 32 vvcurveto
            return
          </CharString>
          <CharString index="346">
            15 25 vhcurveto
            79 vlineto
            return
          </CharString>
          <CharString index="347">
            vlineto
            -103 34 -53 124 115 callsubr
            0 callgsubr
            return
          </CharString>
          <CharString index="348">
            42 13 callsubr
            288 callgsubr
            72 hlineto
            return
          </CharString>
          <CharString index="349" raw="1">
            600afb05 07321d0b  
          </CharString>
          <CharString index="350">
            vlineto
            -27 -8 -19 -52 -52 -8 21 27 vhcurveto
            144 vlineto
            28 8 9 31 vhcurveto
            endchar
          </CharString>
          <CharString index="351">
            64 vlineto
            45 -16 36 -33 25 vhcurveto
            33 25 16 38 50 vvcurveto
            151 79 vlineto
            endchar
          </CharString>
          <CharString index="352">
            -7 29 113 return
          </CharString>
          <CharString index="353">
            8 16 22 hvcurveto
            83 hlineto
            -161 -125 142 -25 66 57 23 20 24 21 return
          </CharString>
          <CharString index="354">
            rmoveto
            252 callsubr
            hvcurveto
            181 76 -181 vlineto
            -23 -5 -16 -33 vhcurveto
            endchar
          </CharString>
          <CharString index="355">
            -30 -40 -61 -93 -58 vvcurveto
            -36 17 -21 44 vhcurveto
            return
          </CharString>
          <CharString index="356">
            -117 77 -274 hlineto
            -103 43 -62 145 return
          </CharString>
          <CharString index="357">
            vlineto
            109 callgsubr
            return
          </CharString>
          <CharString index="358">
            123 50 60 93 return
          </CharString>
          <CharString index="359">
            -33 -5 16 23 return
          </CharString>
          <CharString index="360">
            -4 -16 hhcurveto
            -35 -7 15 25 hvcurveto
            return
          </CharString>
          <CharString index="361">
            vlineto
            -123 -76 -44 -120 hvcurveto
            return
          </CharString>
          <CharString index="362">
            384 200 callgsubr
            return
          </CharString>
          <CharString index="363">
            23 39 vvcurveto
            38 15 20 return
          </CharString>
          <CharString index="364">
            25 hlineto
            33 6 return
          </CharString>
          <CharString index="365">
            -117 270 return
          </CharString>
          <CharString index="366">
            rmoveto
            117 -546 -117 204 -55 vlineto
            -78 -16 -41 -46 -89 vvcurveto
            return
          </CharString>
          <CharString index="367">
            -103 50 -60 118 48 39 16 29 26 vhcurveto
            -29 25 38 -16 48 hhcurveto
            return
          </CharString>
          <CharString index="368">
            29 5 -17 -22 hvcurveto
            -66 vlineto
            -23 -3 -15 -33 -12 -15 2 3 -9 vhcurveto
            return
          </CharString>
          <CharString index="369">
            rmoveto
            128 -130 rlineto
            -16 -11 -19 -12 -35 314 callsubr
            return
          </CharString>
          <CharString index="370">
            vvcurveto
            -64 vlineto
            -103 43 -46 113 22 23 5 7 15 vhcurveto
            -65 131 return
          </CharString>
          <CharString index="371">
            hhcurveto
            -174 hlineto
            -43 callsubr
            return
          </CharString>
          <CharString index="372">
            -57 -118 57 -472 152 472 return
          </CharString>
          <CharString index="373">
            123 44 60 103 return
          </CharString>
          <CharString index="374">
            63 -131 -131 return
          </CharString>
          <CharString index="375">
            54 113 vhcurveto
            return
          </CharString>
          <CharString index="376">
            -41 131 rlineto
            309 callgsubr
            return
          </CharString>
          <CharString index="377">
            vlineto
            -118 38 -55 142 vhcurveto
            119 vlineto
            -31 -9 13 30 hvcurveto
            return
          </CharString>
          <CharString index="378">
            328 callsubr
            -43 -34 -7 -14 -27 hvcurveto
            31 -30 -44 15 -58 hhcurveto
            return
          </CharString>
          <CharString index="379">
            hhcurveto
            26 27 3 5 20 hvcurveto
            -61 313 callgsubr
          </CharString>
          <CharString index="380">
            rlineto
            162 hlineto
            return
          </CharString>
          <CharString index="381">
            rmoveto
            -76 -54 rlineto
            -105 vlineto
            76 54 rlineto
            -344 94 449 vlineto
            return
          </CharString>
          <CharString index="382">
            36 callgsubr
            197 155 rmoveto
            return
          </CharString>
          <CharString index="383">
            -114 41 397 rmoveto
            -130 236 330 callgsubr
          </CharString>
          <CharString index="384">
            hvcurveto
            -179 vlineto
            -103 50 -60 118 return
          </CharString>
          <CharString index="385">
            -143 -50 -60 -113 hvcurveto
            return
          </CharString>
          <CharString index="386">
            -40 13 callsubr
            -117 return
          </CharString>
          <CharString index="387">
            -12 -24 -32 -31 12 -24 return
          </CharString>
          <CharString index="388">
            -117 93 -67 139 return
          </CharString>
          <CharString index="389">
            -29 -18 -15 -32 -41 vvcurveto
            return
          </CharString>
          <CharString index="390">
            554 rmoveto
            117 return
          </CharString>
          <CharString index="391">
            182 91 117 return
          </CharString>
          <CharString index="392">
            -9 6 17 hvcurveto
            return
          </CharString>
          <CharString index="393">
            -151 315 13 callsubr
            -355 -117 355 hlineto
            return
          </CharString>
          <CharString index="394">
            -117 321 -59 -47 vlineto
            -133 -63 -39 -120 hvcurveto
            return
          </CharString>
          <CharString index="395">
            235 305 callsubr
            return
          </CharString>
          <CharString index="396">
            183 callsubr
            endchar
          </CharString>
          <CharString index="397">
            30 -9 17 0 vhcurveto
            81 238 callgsubr
            81 return
          </CharString>
          <CharString index="398">
            -55 -36 vlineto
            265 callgsubr
            return
          </CharString>
          <CharString index="399">
            186 87 117 -510 -117 283 -59 -32 return
          </CharString>
          <CharString index="400">
            29 -26 -39 16 -48 hhcurveto
            -118 -49 -56 -103 -1 hvcurveto
            return
          </CharString>
          <CharString index="401">
            -23 -7 -16 -33 -13 -9 1 1 -12 vhcurveto
            100 -133 return
          </CharString>
          <CharString index="402">
            324 callsubr
            -98 -53 -45 -70 -17 vhcurveto
            return
          </CharString>
          <CharString index="403">
            198 callgsubr
            endchar
          </CharString>
          <CharString index="404">
            -27 -19 8 28 27 19 8 27 return
          </CharString>
          <CharString index="405">
            hlineto
            278 callsubr
            return
          </CharString>
          <CharString index="406">
            329 callsubr
            -27 12 41 hvcurveto
            return
          </CharString>
          <CharString index="407">
            -123 -52 -70 -103 return
          </CharString>
          <CharString index="408">
            vlineto
            -25 -5 -16 -14 return
          </CharString>
          <CharString index="409">
            vlineto
            88 -54 38 -71 return
          </CharString>
          <CharString index="410">
            -169 vlineto
            -103 return
          </CharString>
          <CharString index="411">
            -721 335 callsubr
            return
          </CharString>
          <CharString index="412">
            216 27 callgsubr
            return
          </CharString>
          <CharString index="413">
            hhcurveto
            27 20 2 10 20 hvcurveto
            -65 vlineto
            -66 -7 -40 return
          </CharString>
          <CharString index="414">
            261 13 callsubr
            -301 -117 301 hlineto
            return
          </CharString>
          <CharString index="415">
            -227 hlineto
            -43 callsubr
            -113 vlineto
            return
          </CharString>
          <CharString index="416">
            vlineto
            -2 -14 -14 299 callgsubr
            return
          </CharString>
          <CharString index="417">
            432 13 callsubr
            -472 -117 472 hlineto
            return
          </CharString>
          <CharString index="418">
            -64 vlineto
            333 callsubr
            return
          </CharString>
          <CharString index="419">
            rmoveto
            -693 337 126 -185 567 vlineto
            return
          </CharString>
          <CharString index="420">
            -24 -6 -22 -35 vhcurveto
            -72 return
          </CharString>
          <CharString index="421">
            hhcurveto
            267 callgsubr
            return
          </CharString>
          <CharString index="422">
            -117 288 return
          </CharString>
          <CharString index="423">
            -52 vlineto
            -75 -17 -34 -50 -81 vvcurveto
            -196 vlineto
            return
          </CharString>
          <CharString index="424">
            hhcurveto
            257 callsubr
            -17 -19 -38 -29 -5 -45 return
          </CharString>
          <CharString index="425">
            -25 -37 11 -52 78 callgsubr
            return
          </CharString>
          <CharString index="426">
            -8 -27 -34 299 callsubr
            return
          </CharString>
          <CharString index="427">
            -2 -12 -11 -1 -10 165 callgsubr
            return
          </CharString>
          <CharString index="428">
            -15 -36 -40 229 callsubr
            -30 17 41 hvcurveto
            return
          </CharString>
          <CharString index="429">
            -50 -34 181 callsubr
            -26 vlineto
            return
          </CharString>
          <CharString index="430">
            vlineto
            -23 -14 -9 -25 vhcurveto
            -40 return
          </CharString>
          <CharString index="431">
            490 rmoveto
            273 callgsubr
            return
          </CharString>
          <CharString index="432">
            140 671 -140 hlineto
            return
          </CharString>
          <CharString index="433">
            hhcurveto
            123 55 60 103 hvcurveto
            return
          </CharString>
          <CharString index="434">
            -35 -6 14 24 vhcurveto
            return
          </CharString>
          <CharString index="435">
            -108 -39 hlineto
            return
          </CharString>
          <CharString index="436">
            -2 -25 hhcurveto
            -45 return
          </CharString>
          <CharString index="437">
            rmoveto
            65 117 -339 -117 134 return
          </CharString>
          <CharString index="438">
            -63 -13 254 callsubr
            return
          </CharString>
          <CharString index="439">
            120 22 rlineto
            98 vlineto
            -120 -22 rlineto
            return
          </CharString>
          <CharString index="440">
            273 callgsubr
            300 callsubr
            vhcurveto
            return
          </CharString>
          <CharString index="441">
            328 -136 -13 hlineto
            -33 -18 -14 -37 return
          </CharString>
          <CharString index="442">
            315 callsubr
            hlineto
            0 10 -4 callsubr
            return
          </CharString>
          <CharString index="443">
            221 callsubr
            -202 return
          </CharString>
          <CharString index="444">
            rlineto
            153 hlineto
            return
          </CharString>
          <CharString index="445" raw="1">
            1f911d0b   
          </CharString>
        <CharString name=".notdef">
          330 160 hmoveto
          436 701 -436 hlineto
          81 -76 rmoveto
          275 -549 -275 hlineto
          endchar
        </CharString>
        <CharString name="A">
          63 196 287 -63 callsubr
        </CharString>
        <CharString name="AE">
          299 247 287 rmoveto
          108 302 rlineto
          -302 vlineto
          341 276 rmoveto
          130 -430 vlineto
          -266 -693 rlineto
          145 hlineto
          57 160 rlineto
          153 -160 341 12 callgsubr
          hlineto
          endchar
        </CharString>
        <CharString name="Aacute">
          63 352 847 215 callgsubr
          -81 -445 -63 callsubr
        </CharString>
        <CharString name="Abreve">
          63 285 847 70 callgsubr
          -166 -560 -63 callsubr
        </CharString>
        <CharString name="Acircumflex">
          63 250 786 -12 callsubr
          -13 -445 -63 callsubr
        </CharString>
        <CharString name="Adieresis">
          63 328 735 rmoveto
          97 callsubr
          -171 hmoveto
          97 callsubr
          39 -448 -63 callsubr
        </CharString>
        <CharString name="Agrave">
          63 282 732 306 callgsubr
          -7 -445 -63 callsubr
        </CharString>
        <CharString name="Amacron">
          63 376 828 rmoveto
          -267 -77 267 hlineto
          -180 -464 -63 callsubr
        </CharString>
        <CharString name="Aogonek">
          63 196 287 rmoveto
          46 268 48 -268 rlineto
          194 -287 rmoveto
          -134 693 rlineto
          -209 hlineto
          -136 -693 130 callgsubr
          27 160 rlineto
          137 hlineto
          29 -160 rlineto
          91 hlineto
          -8 callsubr
          endchar
        </CharString>
        <CharString name="Aring">
          63 242 817 rmoveto
          17 11 -12 -16 -18 -11 -11 -17 -17 -11 11 18 16 11 12 17 hvcurveto
          -108 vmoveto
          53 28 36 44 44 -28 35 -53 -52 -29 -35 -44 -44 29 -36 52 hvcurveto
          -46 -422 -63 callsubr
        </CharString>
        <CharString name="Atilde">
          63 171 736 rmoveto
          26 5 11 16 vhcurveto
          24 32 -39 48 hhcurveto
          60 28 42 63 1 hvcurveto
          5 -79 -4 vlineto
          -25 -5 -11 -16 vhcurveto
          -24 -28 39 -52 hhcurveto
          -60 -28 -43 -65 -1 hvcurveto
          -2 79 vlineto
          25 -446 -63 callsubr
        </CharString>
        <CharString name="B">
          67 310 169 rmoveto
          -32 -17 -11 -30 vhcurveto
          -68 157 68 hlineto
          30 17 -11 -32 hvcurveto
          -53 327 rmoveto
          30 17 -11 -32 hvcurveto
          -65 vlineto
          -32 -17 -11 -30 vhcurveto
          -62 151 hlineto
          257 -33 rmoveto
          116 -64 43 -106 vhcurveto
          -237 -693 243 hlineto
          106 64 43 116 hvcurveto
          71 vlineto
          57 -18 49 -59 14 vhcurveto
          54 17 17 47 55 vvcurveto
          endchar
        </CharString>
        <CharString name="C">
          -14 35 529 rmoveto
          -366 vlineto
          -104 68 -64 153 51 51 7 8 29 vhcurveto
          135 vlineto
          167 callsubr
          336 vlineto
          42 callsubr
          endchar
        </CharString>
        <CharString name="CR">
          -426 endchar
        </CharString>
        <CharString name="Cacute">
          -14 252 847 -35 callsubr
          -327 -318 rmoveto
          -366 vlineto
          -104 68 -64 153 51 51 7 8 29 vhcurveto
          135 vlineto
          167 callsubr
          336 vlineto
          42 callsubr
          endchar
        </CharString>
        <CharString name="Ccaron">
          -14 190 732 -36 callsubr
          57 -333 rmoveto
          42 callsubr
          -366 192 callsubr
        </CharString>
        <CharString name="Ccedilla">
          -14 387 145 rmoveto
          167 callsubr
          336 vlineto
          42 callsubr
          -366 vlineto
          -90 51 -60 113 -15 vhcurveto
          -16 -75 77 callgsubr
          8 34 48 1 48 6 28 8 rlinecurve
          endchar
        </CharString>
        <CharString name="D">
          67 186 callsubr
          127 callgsubr
          20 -160 rmoveto
          -358 vlineto
          313 callsubr
          441 72 hlineto
          35 6 -17 -20 hvcurveto
          endchar
        </CharString>
        <CharString name="Dcaron">
          67 181 732 -36 callsubr
          187 -672 rmoveto
          313 callsubr
          441 72 hlineto
          35 6 -17 -20 hvcurveto
          -263 160 rmoveto
          -693 127 callgsubr
          endchar
        </CharString>
        <CharString name="Dcroat">
          96 callgsubr
        </CharString>
        <CharString name="E">
          -5 45 693 204 callsubr
        </CharString>
        <CharString name="Eacute">
          -5 221 847 -35 callsubr
          -286 -154 204 callsubr
        </CharString>
        <CharString name="Ecaron">
          -5 162 732 -36 callsubr
          294 -284 rmoveto
          130 -351 -693 351 12 callgsubr
          vlineto
          endchar
        </CharString>
        <CharString name="Ecircumflex">
          -5 214 786 -12 callsubr
          223 -169 rmoveto
          130 -351 -693 351 12 callgsubr
          vlineto
          endchar
        </CharString>
        <CharString name="Edieresis">
          -5 78 789 rmoveto
          -79 callgsubr
          171 hmoveto
          -79 callgsubr
          -204 -96 204 callsubr
        </CharString>
        <CharString name="Edotaccent">
          -5 186 callsubr
          351 12 callgsubr
          201 6 callgsubr
          -233 96 rmoveto
          -79 callgsubr
          endchar
        </CharString>
        <CharString name="Egrave">
          -5 186 callsubr
          351 12 callgsubr
          201 6 callgsubr
          -288 154 66 callsubr
        </CharString>
        <CharString name="Emacron">
          -5 186 callsubr
          351 12 callgsubr
          201 6 callgsubr
          -314 135 185 callsubr
          endchar
        </CharString>
        <CharString name="Eogonek">
          -5 396 563 rmoveto
          130 -351 -693 298 203 callgsubr
          12 callgsubr
          vlineto
          endchar
        </CharString>
        <CharString name="Eth">
          96 callgsubr
        </CharString>
        <CharString name="Euro">
          46 224 231 rmoveto
          100 98 -100 40 100 98 -100 47 hlineto
          42 callsubr
          -62 -52 -98 52 -40 -52 -98 52 -68 192 callsubr
        </CharString>
        <CharString name="F">
          -23 186 callsubr
          152 257 176 134 -176 171 191 131 vlineto
          endchar
        </CharString>
        <CharString name="G">
          3 callsubr
          endchar
        </CharString>
        <CharString name="Gbreve">
          3 callsubr
          259 321 70 callgsubr
          endchar
        </CharString>
        <CharString name="H">
          106 335 693 rmoveto
          -285 -138 285 -152 -693 152 274 138 -274 337 callgsubr
        </CharString>
        <CharString name="I">
          111 callgsubr
          endchar
        </CharString>
        <CharString name="Iacute">
          111 callgsubr
          -75 154 145 callsubr
        </CharString>
        <CharString name="Icircumflex">
          -184 121 786 -12 callsubr
          -35 -732 rmoveto
          152 693 -152 hlineto
          endchar
        </CharString>
        <CharString name="Idieresis">
          111 callgsubr
          -220 96 66 callgsubr
        </CharString>
        <CharString name="Idotaccent">
          111 callgsubr
          -136 96 rmoveto
          -79 callgsubr
          endchar
        </CharString>
        <CharString name="Igrave">
          111 callgsubr
          -187 154 66 callsubr
        </CharString>
        <CharString name="Imacron">
          111 callgsubr
          -206 135 185 callsubr
          endchar
        </CharString>
        <CharString name="Iogonek">
          -184 197 693 rmoveto
          -152 -693 99 hlineto
          -8 callsubr
          endchar
        </CharString>
        <CharString name="J">
          -179 50 693 rmoveto
          -486 vlineto
          -94 -15 -63 -28 -96 vhcurveto
          -30 -103 rlineto
          159 hlineto
          31 103 rlineto
          29 96 6 50 108 vvcurveto
          485 vlineto
          endchar
        </CharString>
        <CharString name="K">
          60 481 hmoveto
          -139 358 187 callsubr
          endchar
        </CharString>
        <CharString name="L">
          -39 45 693 214 callgsubr
        </CharString>
        <CharString name="Lacute">
          -39 122 847 -35 callsubr
          -187 -154 214 callgsubr
        </CharString>
        <CharString name="Lcaron">
          -39 257 747 -60 callgsubr
          -258 -54 214 callgsubr
        </CharString>
        <CharString name="Lslash">
          -37 207 126 rmoveto
          200 vlineto
          86 35 rlineto
          100 vlineto
          -86 -35 rlineto
          267 -152 -329 vlineto
          -55 -23 rlineto
          -100 vlineto
          55 23 rlineto
          -264 337 126 vlineto
          endchar
        </CharString>
        <CharString name="M">
          223 449 693 rmoveto
          -125 -354 -125 354 rlineto
          -154 -693 144 241 hlineto
          112 -19 93 0 vhcurveto
          96 -270 rlineto
          116 hlineto
          96 270 rlineto
          0 -19 -93 -112 vvcurveto
          -241 145 693 vlineto
          endchar
        </CharString>
        <CharString name="N">
          106 339 693 -44 callgsubr
        </CharString>
        <CharString name="NULL">
          -426 endchar
        </CharString>
        <CharString name="Nacute">
          106 365 847 215 callgsubr
          49 -39 -44 callgsubr
        </CharString>
        <CharString name="Ncaron">
          106 204 732 -36 callsubr
          195 -154 -44 callgsubr
        </CharString>
        <CharString name="Ntilde">
          106 204 736 rmoveto
          26 5 11 16 vhcurveto
          24 32 -39 48 hhcurveto
          60 28 42 63 1 hvcurveto
          5 -79 -4 vlineto
          -25 -5 -11 -16 vhcurveto
          -24 -28 39 -52 hhcurveto
          -60 -28 -43 -65 -1 hvcurveto
          -2 79 vlineto
          135 -40 -44 callgsubr
        </CharString>
        <CharString name="O">
          92 callsubr
          endchar
        </CharString>
        <CharString name="OE">
          286 246 129 rmoveto
          -35 -6 22 24 hvcurveto
          358 vlineto
          20 6 17 35 vhcurveto
          88 -441 hlineto
          351 434 rmoveto
          130 -460 vlineto
          -106 -64 -51 -103 hvcurveto
          -376 vlineto
          -102 46 -61 115 vhcurveto
          469 12 callgsubr
          hlineto
          endchar
        </CharString>
        <CharString name="Oacute">
          63 257 847 -35 callsubr
          -332 -323 -73 callsubr
          endchar
        </CharString>
        <CharString name="Ocircumflex">
          63 247 786 -12 callsubr
          98 -555 rmoveto
          -31 -18 -19 -42 -42 -17 20 30 vhcurveto
          339 vlineto
          31 17 19 42 42 18 -20 -30 vhcurveto
          -269 -347 rmoveto
          -106 68 201 callgsubr
          69 73 106 vhcurveto
          355 vlineto
          106 -69 73 -141 -141 -68 -73 -106 vhcurveto
          endchar
        </CharString>
        <CharString name="Odieresis">
          63 101 789 rmoveto
          -79 callgsubr
          171 hmoveto
          -79 callgsubr
          -237 -265 -73 callsubr
          endchar
        </CharString>
        <CharString name="Ograve">
          92 callsubr
          -176 331 66 callsubr
        </CharString>
        <CharString name="Ohungarumlaut">
          63 312 847 48 callsubr
          -257 -323 -73 callsubr
          endchar
        </CharString>
        <CharString name="Omacron">
          63 112 828 185 callsubr
          -344 -304 -73 callsubr
          endchar
        </CharString>
        <CharString name="Oslash">
          63 304 177 rmoveto
          -31 -18 -19 -42 -26 -17 8 13 -9 vhcurveto
          112 228 rlineto
          -119 140 rmoveto
          31 17 19 42 27 17 -8 -13 8 vhcurveto
          -111 -228 rlineto
          274 376 rmoveto
          -90 hlineto
          -7 -13 rlineto
          15 -31 -39 8 -48 hhcurveto
          -141 -68 -73 -106 hvcurveto
          -355 vlineto
          -39 9 -35 19 -28 vhcurveto
          -33 -67 rlineto
          90 hlineto
          6 13 rlineto
          -15 32 39 -8 47 hhcurveto
          141 69 73 106 hvcurveto
          355 vlineto
          39 -9 34 -19 28 vhcurveto
          endchar
        </CharString>
        <CharString name="Otilde">
          92 callsubr
          5 328 -22 callgsubr
        </CharString>
        <CharString name="P">
          44 186 callsubr
          151 200 75 vlineto
          106 68 51 103 hvcurveto
          185 vlineto
          103 -68 51 -106 vhcurveto
          24 -172 rmoveto
          -149 vlineto
          -30 -13 -12 -30 vhcurveto
          -56 233 56 hlineto
          30 13 -12 -30 hvcurveto
          endchar
        </CharString>
        <CharString name="Q">
          63 185 516 rmoveto
          31 17 19 42 42 18 -20 -30 vhcurveto
          -339 vlineto
          -31 -18 -19 -42 -42 -17 20 30 vhcurveto
          323 -264 rmoveto
          -116 119 rlineto
          42 32 20 47 58 vvcurveto
          355 vlineto
          106 -69 73 -141 -141 -68 -73 -106 vhcurveto
          -355 vlineto
          -106 68 -73 141 vhcurveto
          13 hlineto
          74 -77 rlineto
          endchar
        </CharString>
        <CharString name="R">
          56 195 565 17 callgsubr
        </CharString>
        <CharString name="Racute">
          56 339 847 215 callgsubr
          -69 -167 17 callgsubr
        </CharString>
        <CharString name="Rcaron">
          56 172 732 -36 callsubr
          83 -282 17 callgsubr
        </CharString>
        <CharString name="S">
          13 20 531 -57 callgsubr
          endchar
        </CharString>
        <CharString name="Sacute">
          13 226 847 -35 callsubr
          -316 -316 -57 callgsubr
          endchar
        </CharString>
        <CharString name="Scaron">
          13 161 732 -36 callsubr
          124 -423 rmoveto
          -42 23 -9 12 37 vvcurveto
          15 vlineto
          26 10 22 58 61 43 -11 -15 35 vhcurveto
          144 vlineto
          8 -19 -49 13 -74 hhcurveto
          -152 -67 -64 -103 hvcurveto
          -63 vlineto
          -75 40 -45 57 -32 vhcurveto
          107 -58 rlineto
          34 -18 11 -11 -31 vvcurveto
          -15 vlineto
          -28 -24 -21 -63 -61 -57 14 15 -35 vhcurveto
          -145 vlineto
          -8 19 62 -15 74 hhcurveto
          158 79 62 106 hvcurveto
          62 vlineto
          67 -29 39 -53 29 vhcurveto
          endchar
        </CharString>
        <CharString name="T">
          -14 407 693 125 callgsubr
        </CharString>
        <CharString name="Tcaron">
          -14 151 732 -36 callsubr
          316 -154 125 callgsubr
        </CharString>
        <CharString name="Thorn">
          27 299 274 rmoveto
          -30 -13 -12 -30 vhcurveto
          -57 230 57 hlineto
          30 13 -12 -30 hvcurveto
          -100 170 rmoveto
          103 -144 -693 144 104 70 vlineto
          106 68 51 103 hvcurveto
          178 vlineto
          103 -68 51 -106 vhcurveto
          endchar
        </CharString>
        <CharString name="U">
          67 callsubr
          endchar
        </CharString>
        <CharString name="Uacute">
          69 251 847 -35 callsubr
          -56 -154 -46 callsubr
          endchar
        </CharString>
        <CharString name="Ucircumflex">
          69 248 786 -12 callsubr
          98 -39 -46 callsubr
          endchar
        </CharString>
        <CharString name="Udieresis">
          69 103 789 rmoveto
          -79 callgsubr
          171 hmoveto
          -79 callgsubr
          31 -96 -46 callsubr
          endchar
        </CharString>
        <CharString name="Ugrave">
          67 callsubr
          -321 154 66 callsubr
        </CharString>
        <CharString name="Uhungarumlaut">
          67 callsubr
          -143 154 48 callsubr
          endchar
        </CharString>
        <CharString name="Umacron">
          67 callsubr
          -342 135 185 callsubr
          endchar
        </CharString>
        <CharString name="Uogonek">
          69 305 693 rmoveto
          -516 vlineto
          -31 -16 -19 -42 -42 -15 20 30 vhcurveto
          516 -150 -524 vlineto
          -106 66 -73 141 11 10 0 1 10 vhcurveto
          -27 -28 -19 -36 -37 vvcurveto
          -50 34 -30 61 vhcurveto
          24 69 -11 hlineto
          -19 -10 11 25 35 16 33 20 23 hvcurveto
          73 27 35 59 77 vvcurveto
          524 vlineto
          endchar
        </CharString>
        <CharString name="Uring">
          69 166 789 19 callsubr
          30 -96 -46 callsubr
          endchar
        </CharString>
        <CharString name="V">
          59 324 693 rmoveto
          -46 -295 rlineto
          -14 -89 -19 -179 0 vvcurveto
          0 -20 178 -16 92 vhcurveto
          -51 293 rlineto
          -153 hlineto
          134 -693 rlineto
          209 hlineto
          132 693 rlineto
          endchar
        </CharString>
        <CharString name="W">
          167 459 693 rmoveto
          -33 -228 rlineto
          -12 -84 -5 -100 0 vvcurveto
          0 -11 100 -10 84 vhcurveto
          -26 228 rlineto
          -127 hlineto
          -28 -228 rlineto
          -11 -93 -11 -98 0 vvcurveto
          0 -4 98 -13 93 vhcurveto
          -32 228 rlineto
          -131 hlineto
          89 -693 130 callgsubr
          42 274 rlineto
          12 80 8 111 0 vvcurveto
          0 10 -111 12 -80 vhcurveto
          41 -274 rlineto
          134 hlineto
          92 693 rlineto
          endchar
        </CharString>
        <CharString name="X">
          42 301 693 rmoveto
          -65 -191 -69 191 rlineto
          -162 hlineto
          148 -348 -148 -345 rlineto
          163 hlineto
          68 189 64 -189 rlineto
          163 hlineto
          -149 345 149 348 rlineto
          endchar
        </CharString>
        <CharString name="Y">
          56 332 693 67 callgsubr
          endchar
        </CharString>
        <CharString name="Yacute">
          56 332 693 67 callgsubr
          -238 155 145 callsubr
        </CharString>
        <CharString name="Ydieresis">
          56 100 789 rmoveto
          -79 callgsubr
          171 hmoveto
          -79 callgsubr
          61 -96 67 callgsubr
          endchar
        </CharString>
        <CharString name="Z">
          176 callgsubr
          endchar
        </CharString>
        <CharString name="Zacute">
          -1 214 847 -35 callsubr
          -300 -154 191 callsubr
          endchar
        </CharString>
        <CharString name="Zcaron">
          -1 154 732 -36 callsubr
          83 -720 rmoveto
          224 445 rlineto
          121 -377 138 callgsubr
          vlineto
          endchar
        </CharString>
        <CharString name="Zdotaccent">
          176 callgsubr
          -244 96 rmoveto
          -79 callgsubr
          endchar
        </CharString>
        <CharString name="a">
          -92 callgsubr
          endchar
        </CharString>
        <CharString name="aacute">
          -92 callgsubr
          -42 506 145 callsubr
        </CharString>
        <CharString name="abreve">
          -92 callgsubr
          3 506 70 callgsubr
          endchar
        </CharString>
        <CharString name="acircumflex">
          11 215 686 -12 callsubr
          78 -512 rmoveto
          -7 -13 -20 -4 -17 hhcurveto
          -26 -9 13 21 hvcurveto
          28 vlineto
          38 5 11 34 9 vhcurveto
          46 12 rlineto
          -202 202 rmoveto
          7 18 59 14 60 hhcurveto
          51 14 -14 -33 1 hvcurveto
          -55 vlineto
          -109 -28 rlineto
          -87 -24 -38 -43 -90 vvcurveto
          -34 vlineto
          -101 41 -44 94 57 31 23 22 14 vhcurveto
          -43 252 callgsubr
          115 -48 64 -146 -71 -56 -10 -9 -26 vhcurveto
          endchar
        </CharString>
        <CharString name="acute">
          -76 142 747 145 callsubr
        </CharString>
        <CharString name="adieresis">
          -92 callgsubr
          -185 448 66 callgsubr
        </CharString>
        <CharString name="ae">
          229 318 572 rmoveto
          15 -29 -39 8 -50 hhcurveto
          -71 -59 -14 -7 -20 hvcurveto
          -132 vlineto
          7 18 58 15 61 hhcurveto
          53 11 -18 -20 hvcurveto
          1 -57 -108 -34 rlineto
          -85 -26 -35 -42 -90 vvcurveto
          -35 vlineto
          -100 56 -46 95 66 47 9 20 32 vhcurveto
          -20 33 45 -11 61 hhcurveto
          85 32 10 9 33 hvcurveto
          132 vlineto
          -6 -20 -52 -14 -63 hhcurveto
          -53 -26 11 44 hvcurveto
          56 228 203 vlineto
          98 -52 63 -131 -52 -40 -10 -18 -30 vhcurveto
          -63 -451 rmoveto
          -9 -18 -21 -3 -14 hhcurveto
          -19 -16 9 25 hvcurveto
          28 vlineto
          38 5 12 34 9 vhcurveto
          49 13 rlineto
          229 194 rmoveto
          -86 -90 86 vlineto
          25 19 13 27 27 17 -13 -25 vhcurveto
          endchar
        </CharString>
        <CharString name="agrave">
          -92 callgsubr
          -154 506 66 callsubr
        </CharString>
        <CharString name="amacron">
          -92 callgsubr
          -163 487 185 callsubr
          endchar
        </CharString>
        <CharString name="ampersand">
          78 303 177 rmoveto
          -31 -10 -20 -41 -41 -8 21 30 vhcurveto
          71 vlineto
          33 14 15 37 vhcurveto
          49 hlineto
          194 128 rmoveto
          -50 66 -144 -66 -49 hlineto
          -38 -11 15 36 hvcurveto
          39 vlineto
          30 15 18 65 52 37 -4 -13 34 vhcurveto
          140 vlineto
          9 -27 -42 5 -58 hhcurveto
          -156 -70 -65 -102 hvcurveto
          -60 vlineto
          -59 29 -35 39 -13 vhcurveto
          -44 -13 -26 -34 -60 vvcurveto
          -85 300 callgsubr
          54 73 106 vhcurveto
          123 50 vlineto
          endchar
        </CharString>
        <CharString name="aogonek">
          11 252 120 rmoveto
          -7 -13 -20 -4 -17 hhcurveto
          -26 -9 13 21 hvcurveto
          28 vlineto
          38 5 11 34 9 vhcurveto
          46 12 rlineto
          -202 202 rmoveto
          7 18 59 14 60 hhcurveto
          51 14 -14 -33 1 hvcurveto
          -55 vlineto
          -109 -28 rlineto
          -87 -24 -38 -43 -90 vvcurveto
          -34 vlineto
          -101 41 -44 94 57 31 23 22 14 vhcurveto
          -43 87 203 callgsubr
          1 416 hlineto
          115 -48 64 -146 -71 -56 -10 -9 -26 vhcurveto
          endchar
        </CharString>
        <CharString name="apostrophemod">
          -221 67 733 164 callgsubr
        </CharString>
        <CharString name="approxequal">
          199 457 315 32 callsubr
          -134 230 32 callsubr
          endchar
        </CharString>
        <CharString name="aring">
          -92 callgsubr
          -124 448 19 callsubr
          endchar
        </CharString>
        <CharString name="asciicircum">
          15 439 400 rmoveto
          -135 337 rlineto
          -168 hlineto
          -136 -337 rlineto
          149 hlineto
          71 233 70 -233 rlineto
          endchar
        </CharString>
        <CharString name="asciitilde">
          199 457 442 32 callsubr
          endchar
        </CharString>
        <CharString name="asterisk">
          130 528 605 rmoveto
          -43 133 -84 -28 -25 -8 -20 -9 -16 -10 rlinecurve
          4 18 3 22 26 vvcurveto
          89 -140 -89 vlineto
          -26 3 -21 4 -18 vhcurveto
          -16 9 -19 10 -25 8 -85 27 rcurveline
          -43 -133 84 -27 25 -8 22 -4 19 -2 rlinecurve
          -14 -12 -15 -16 -16 -21 -52 -72 rcurveline
          113 -82 52 71 15 21 11 19 7 17 rlinecurve
          7 -17 10 -19 15 -21 53 -71 rcurveline
          113 82 -52 71 -16 21 -15 17 -14 12 rlinecurve
          19 1 22 4 25 8 rrcurveto
          endchar
        </CharString>
        <CharString name="at">
          491 491 154 rmoveto
          0 -20 -8 -15 -25 -3 6 15 vhcurveto
          31 vlineto
          24 5 8 21 8 vhcurveto
          37 13 rlineto
          66 -390 rmoveto
          117 -92 vlineto
          -263 -17 128 179 178 14 131 266 268 10 -126 -181 -135 -19 -36 -55 -48 -18 19 47 hvcurveto
          232 vlineto
          82 -46 36 -104 -54 -47 -11 -6 -20 vhcurveto
          -97 vlineto
          7 23 43 12 55 hhcurveto
          33 5 -11 -18 hvcurveto
          -59 vlineto
          -95 -35 rlineto
          -57 -22 -23 -36 -62 vvcurveto
          -28 vlineto
          -71 32 -42 78 45 28 9 8 17 vhcurveto
          -43 28 53 -20 62 hhcurveto
          127 81 66 214 249 -69 174 -333 -327 -79 -179 -246 -247 75 -177 330 hvcurveto
          endchar
        </CharString>
        <CharString name="atilde">
          -92 callgsubr
          27 503 -22 callgsubr
        </CharString>
        <CharString name="b">
          37 45 747 rmoveto
          -747 230 266 callgsubr
          -55 38 -71 -49 -37 -8 -7 -20 vhcurveto
          169 vlineto
          79 -317 rmoveto
          -259 323 callsubr
          304 hlineto
          6 10 20 5 20 hhcurveto
          19 10 -8 -16 hvcurveto
          endchar
        </CharString>
        <CharString name="backslash">
          61 39 869 rmoveto
          270 -1052 rlineto
          140 hlineto
          -271 1052 rlineto
          endchar
        </CharString>
        <CharString name="bar">
          61 880 rmoveto
          -1070 100 1070 vlineto
          endchar
        </CharString>
        <CharString name="braceleft">
          -14 258 684 rmoveto
          24 12 15 27 vhcurveto
          45 129 -56 hlineto
          -102 -56 -72 -103 hvcurveto
          -217 vlineto
          -40 -26 -19 -43 vhcurveto
          -5 -129 5 hlineto
          43 26 -19 -40 hvcurveto
          -218 vlineto
          -103 56 -72 102 vhcurveto
          56 129 -45 hlineto
          -27 -12 15 24 hvcurveto
          198 vlineto
          86 -18 51 -75 14 vhcurveto
          75 16 18 58 86 vvcurveto
          endchar
        </CharString>
        <CharString name="braceright">
          -17 347 401 rmoveto
          -43 -26 19 40 hvcurveto
          217 vlineto
          103 -56 72 -102 vhcurveto
          -56 -129 45 hlineto
          27 12 -15 -24 hvcurveto
          -187 vlineto
          -86 18 -58 75 -16 vhcurveto
          -75 -14 -18 -51 -86 vvcurveto
          -198 vlineto
          -24 -12 -15 -27 vhcurveto
          -45 -129 56 hlineto
          102 56 72 103 hvcurveto
          218 vlineto
          40 26 19 43 vhcurveto
          5 129 hlineto
          endchar
        </CharString>
        <CharString name="bracketleft">
          -52 209 -65 rmoveto
          817 120 117 -241 -1052 241 118 vlineto
          endchar
        </CharString>
        <CharString name="bracketright">
          -52 44 869 rmoveto
          -117 120 -817 -120 -118 241 1052 vlineto
          endchar
        </CharString>
        <CharString name="breve">
          -76 218 747 70 callgsubr
          endchar
        </CharString>
        <CharString name="brokenbar">
          -201 61 880 rmoveto
          -390 100 390 vlineto
          -100 -680 rmoveto
          -390 100 390 vlineto
          endchar
        </CharString>
        <CharString name="bullet">
          -174 24 338 rmoveto
          -56 22 -44 78 77 23 44 56 56 -23 44 -77 -78 -22 -44 -56 vhcurveto
          endchar
        </CharString>
        <CharString name="c">
          -50 35 421 rmoveto
          -252 vlineto
          -116 67 -58 129 63 29 6 9 33 vhcurveto
          29 callgsubr
          139 vlineto
          172 callsubr
          endchar
        </CharString>
        <CharString name="cacute">
          -50 232 747 -35 callsubr
          -307 -326 rmoveto
          -252 vlineto
          -116 67 -58 129 63 29 6 9 33 vhcurveto
          29 callgsubr
          139 vlineto
          172 callsubr
          endchar
        </CharString>
        <CharString name="caron">
          -76 215 747 rmoveto
          -40 -54 -41 54 rlineto
          -73 hlineto
          60 -115 rlineto
          107 hlineto
          60 115 rlineto
          endchar
        </CharString>
        <CharString name="ccaron">
          -50 176 632 -36 callsubr
          240 -167 rmoveto
          172 callsubr
          -252 vlineto
          -116 67 -58 129 63 29 6 9 33 vhcurveto
          189 callgsubr
        </CharString>
        <CharString name="ccedilla">
          -50 356 580 rmoveto
          172 callsubr
          -252 vlineto
          -99 49 -57 94 -14 vhcurveto
          -16 -76 77 callgsubr
          8 34 55 1 28 6 31 8 rlinecurve
          189 callgsubr
        </CharString>
        <CharString name="cedilla">
          -76 139 6 rmoveto
          -18 -83 77 callgsubr
          10 45 rlineto
          endchar
        </CharString>
        <CharString name="cent">
          -47 358 580 rmoveto
          -19 5 -17 4 -23 3 rrcurveto
          63 -140 -68 vlineto
          -81 -19 -41 -56 -91 vvcurveto
          -252 vlineto
          -89 39 -55 77 -21 vhcurveto
          -71 140 65 vlineto
          26 2 19 4 20 6 rrcurveto
          189 callgsubr
        </CharString>
        <CharString name="circumflex">
          -76 288 632 rmoveto
          -60 115 rlineto
          -107 hlineto
          -60 -115 rlineto
          73 hlineto
          41 54 40 -54 rlineto
          endchar
        </CharString>
        <CharString name="colon">
          -169 38 419 rmoveto
          10 callsubr
          -351 vmoveto
          10 callsubr
          endchar
        </CharString>
        <CharString name="comma">
          -206 226 callsubr
          endchar
        </CharString>
        <CharString name="copyright">
          282 35 335 rmoveto
          -195 58 -140 261 259 60 143 192 197 -56 139 -263 -258 -61 -142 -194 vhcurveto
          191 63 rmoveto
          -123 vlineto
          -74 39 -43 97 50 28 10 0 vhcurveto
          88 vlineto
          -6 -38 -14 0 -24 hhcurveto
          -33 -3 11 17 hvcurveto
          117 vlineto
          17 3 11 33 24 14 -1 -6 38 vhcurveto
          89 vlineto
          0 -28 10 -50 -97 -39 -43 -74 vhcurveto
          339 -63 rmoveto
          -134 -13 -99 -198 -201 -10 96 137 136 8 97 203 205 6 -95 -138 vhcurveto
          endchar
        </CharString>
        <CharString name="currency">
          34 176 399 rmoveto
          33 17 20 40 40 17 -21 -32 vhcurveto
          -105 vlineto
          -33 -17 -20 -40 -40 -17 21 32 vhcurveto
          259 110 rmoveto
          34 -6 30 -13 25 vhcurveto
          49 49 -85 85 -56 -57 rlineto
          8 -26 -30 5 -35 hhcurveto
          -35 -30 -4 -9 -25 hvcurveto
          -56 57 -85 -85 48 -48 rlineto
          -13 -26 -6 -30 -34 vvcurveto
          -115 vlineto
          -33 6 -31 13 -25 vhcurveto
          -49 -49 85 -85 56 57 rlineto
          -8 26 30 -5 35 hhcurveto
          35 29 4 9 25 hvcurveto
          57 -57 85 85 -48 48 rlineto
          13 26 6 30 34 vvcurveto
          endchar
        </CharString>
        <CharString name="d">
          36 93 callsubr
          endchar
        </CharString>
        <CharString name="dagger">
          -36 127 833 rmoveto
          -81 10 -91 0 vhcurveto
          218 callsubr
          0 -10 -92 -109 vvcurveto
          -393 140 393 vlineto
          109 -10 92 0 vhcurveto
          218 callgsubr
          0 10 91 81 vvcurveto
          endchar
        </CharString>
        <CharString name="daggerdbl">
          -35 126 833 rmoveto
          -81 10 -91 0 vhcurveto
          218 callsubr
          -2 -64 0 -191 2 -70 rrcurveto
          218 callsubr
          0 -10 -57 -115 vvcurveto
          140 hlineto
          115 -10 57 0 vhcurveto
          218 callgsubr
          2 70 0 192 -2 63 rrcurveto
          218 callgsubr
          0 10 91 81 vvcurveto
          endchar
        </CharString>
        <CharString name="danda">
          -104 140 hmoveto
          325 callsubr
          endchar
        </CharString>
        <CharString name="dcaron">
          64 93 callsubr
          214 291 -60 callgsubr
          endchar
        </CharString>
        <CharString name="dcroat">
          39 269 145 rmoveto
          -6 -10 -22 -6 -20 hhcurveto
          -20 -8 10 16 hvcurveto
          247 vlineto
          35 17 15 30 vhcurveto
          33 hlineto
          191 244 rmoveto
          -40 47 -152 -47 -128 -64 128 -46 -44 hlineto
          -130 -56 -72 -107 hvcurveto
          -279 vlineto
          -84 43 -52 86 60 35 32 14 11 vhcurveto
          -42 147 636 40 vlineto
          endchar
        </CharString>
        <CharString name="degree">
          14 42 674 rmoveto
          -106 51 -76 126 126 52 76 106 106 -52 76 -126 -126 -51 -76 -106 vhcurveto
          231 hmoveto
          -45 -14 -24 -40 -40 -13 24 45 45 13 24 40 40 14 -24 -45 vhcurveto
          endchar
        </CharString>
        <CharString name="dieresis">
          -76 32 689 66 callgsubr
        </CharString>
        <CharString name="divide">
          72 41 396 rmoveto
          -130 414 6 callgsubr
          -283 -236 rmoveto
          261 callgsubr
          343 vmoveto
          248 callgsubr
        </CharString>
        <CharString name="dollar">
          13 225 424 rmoveto
          -42 23 -9 12 37 vvcurveto
          15 vlineto
          26 10 22 58 61 43 -11 -15 35 vhcurveto
          144 vlineto
          -14 6 -32 9 -46 4 rrcurveto
          51 -142 -59 vlineto
          -87 -22 -40 -56 -79 vvcurveto
          -63 vlineto
          -75 40 -45 57 -32 vhcurveto
          107 -58 rlineto
          34 -18 11 -11 -31 vvcurveto
          -15 vlineto
          -28 -24 -21 -63 -61 -57 14 15 -35 vhcurveto
          -145 vlineto
          15 -6 42 -11 54 -4 rrcurveto
          -50 142 58 vlineto
          93 21 46 56 81 vvcurveto
          62 vlineto
          67 -29 39 -53 29 vhcurveto
          endchar
        </CharString>
        <CharString name="dotaccent">
          -76 117 689 rmoveto
          -79 callgsubr
          endchar
        </CharString>
        <CharString name="dotlessi">
          112 callgsubr
          endchar
        </CharString>
        <CharString name="dottedcircle">
          234 139 517 rmoveto
          -26 18 -19 26 26 18 19 26 25 -18 19 -26 -26 -18 -19 -25 vhcurveto
          -82 -110 rmoveto
          -25 20 -19 26 24 20 19 25 25 -20 19 -24 -26 -20 -19 -25 vhcurveto
          -13 -126 rmoveto
          -25 19 -18 25 26 18 18 336 callgsubr
          52 -116 rmoveto
          -26 18 -18 26 25 19 18 26 25 -19 19 -25 -26 -18 -19 -25 vhcurveto
          101 -75 rmoveto
          -26 19 -20 26 25 19 20 26 24 -19 20 -25 -26 -19 -20 -24 vhcurveto
          127 -16 rmoveto
          -26 18 -18 26 26 19 18 26 26 -19 18 -26 -26 -18 -18 -26 vhcurveto
          121 53 rmoveto
          -26 19 -18 25 25 20 18 26 25 -20 19 -25 -25 -19 -19 -25 vhcurveto
          73 98 rmoveto
          -25 19 -19 26 24 19 19 25 26 -19 19 -24 -26 -19 -19 -26 vhcurveto
          10 134 rmoveto
          -26 18 -18 26 25 19 18 26 26 -19 18 -25 -26 -18 -18 -26 vhcurveto
          -50 118 rmoveto
          -25 19 -19 25 26 18 19 336 callgsubr
          -95 68 rmoveto
          -24 19 -20 26 25 18 20 24 26 -18 19 -25 -26 -19 -19 -26 vhcurveto
          -126 15 rmoveto
          -26 18 -18 26 26 18 18 26 26 -18 18 -26 -26 -18 -18 -26 vhcurveto
          endchar
        </CharString>
        <CharString name="doubledanda">
          16 42 hmoveto
          325 callsubr
          218 -671 rmoveto
          325 callsubr
          endchar
        </CharString>
        <CharString name="dvA">
          182 426 13 callsubr
          -338 -85 vlineto
          -60 callsubr
          82 117 vlineto
          endchar
        </CharString>
        <CharString name="dvAA">
          406 872 13 callsubr
          -446 -338 -79 callsubr
          84 171 callsubr
        </CharString>
        <CharString name="dvAI">
          15 403 13 callsubr
          -152 230 rlineto
          -155 hlineto
          165 -230 rlineto
          -301 -117 81 -370 hlineto
          232 callsubr
          127 vlineto
          55 callgsubr
          vlineto
          endchar
        </CharString>
        <CharString name="dvAU">
          407 785 13 callsubr
          -41 131 rlineto
          0 callsubr
          -92 -338 -79 callsubr
          85 -554 -46 callgsubr
        </CharString>
        <CharString name="dvAbbreviationsign">
          14 42 324 rmoveto
          -106 51 -71 126 126 52 71 106 106 -52 72 -126 -126 -51 -72 -106 vhcurveto
          124 hmoveto
          45 13 20 40 40 14 -20 -45 -45 -14 -19 -40 -40 -13 19 45 vhcurveto
          endchar
        </CharString>
        <CharString name="dvAcandra">
          182 426 333 rmoveto
          -79 callsubr
          82 117 -222 vlineto
          143 235 17 callsubr
        </CharString>
        <CharString name="dvAnusvara">
          -426 -187 802 39 callsubr
          endchar
        </CharString>
        <CharString name="dvAnusvara.amI">
          -426 47 812 39 callsubr
          endchar
        </CharString>
        <CharString name="dvAvagraha">
          -5 396 189 rmoveto
          68 -9 41 -66 47 vhcurveto
          -121 86 rlineto
          -26 19 -11 12 30 vvcurveto
          11 vlineto
          21 5 17 34 vhcurveto
          169 130 -180 hlineto
          -123 274 callgsubr
          -26 vlineto
          -58 26 -46 46 -33 vhcurveto
          125 -89 rlineto
          28 -20 8 -4 callsubr
          -29 vlineto
          -20 -8 -18 -36 vhcurveto
          -6 hlineto
          -36 -8 18 20 hvcurveto
          60 -140 -55 vlineto
          -113 56 -60 123 vhcurveto
          18 hlineto
          123 54 60 113 hvcurveto
          endchar
        </CharString>
        <CharString name="dvB">
          -155 279 callsubr
          488 117 vlineto
          -418 -343 rmoveto
          123 callgsubr
          143 133 63 60 118 vhcurveto
          97 vlineto
          118 -63 60 -133 -153 -49 -64 -114 vhcurveto
          275 -63 28 callsubr
          endchar
        </CharString>
        <CharString name="dvBA">
          44 163 15 callsubr
          -335 291 rmoveto
          -117 335 161 callsubr
          240 callgsubr
        </CharString>
        <CharString name="dvBH">
          11 247 148 callgsubr
          271 118 rmoveto
          -131 -32 callgsubr
          38 callgsubr
          137 vlineto
          endchar
        </CharString>
        <CharString name="dvBHA">
          222 248 212 33 callgsubr
        </CharString>
        <CharString name="dvBH_LA">
          654 247 148 callgsubr
          193 355 rmoveto
          -117 458 -66 vlineto
          139 callgsubr
          -67 -49 -21 -39 -28 hvcurveto
          -105 -32 callgsubr
          38 callgsubr
          81 -134 vlineto
          87 callgsubr
          vlineto
          endchar
        </CharString>
        <CharString name="dvBH_NA">
          609 662 216 -102 callsubr
          -415 -89 -55 callgsubr
          202 355 rmoveto
          -117 404 -63 -227 vlineto
          -71 -46 -20 -37 -25 hvcurveto
          -97 -32 callgsubr
          38 callgsubr
          76 -101 vlineto
          -103 46 -60 123 123 44 60 103 vhcurveto
          155 callgsubr
        </CharString>
        <CharString name="dvBH_R">
          36 520 453 rmoveto
          -132 60 hlineto
          -21 callgsubr
          -12 2 -10 117 callgsubr
          -2 7 10 -17 callsubr
          -55 -39 vlineto
          -123 -51 -60 -93 hvcurveto
          -27 vlineto
          -93 51 -60 123 121 52 60 93 vhcurveto
          62 138 vlineto
          -11 vmoveto
          -316 -382 273 callsubr
          59 71 49 58 38 76 8 27 rlinecurve
          -272 104 -41 callgsubr
          18 -74 callsubr
          39 hlineto
          endchar
        </CharString>
        <CharString name="dvBH_RA">
          222 466 259 rmoveto
          -262 -317 273 callsubr
          52 62 24 29 35 62 278 callgsubr
          -3 -52 -17 vvcurveto
          -5 130 562 82 117 -222 64 callsubr
          -123 -51 -60 -93 hvcurveto
          -27 vlineto
          -93 51 -60 123 121 52 60 93 vhcurveto
          62 84 vlineto
          -218 -57 -41 callgsubr
          18 -74 callsubr
          39 hlineto
          endchar
        </CharString>
        <CharString name="dvBH_R_YA">
          531 775 -104 callsubr
          -527 -276 -41 callgsubr
          19 -74 callsubr
          39 hlineto
          192 335 rmoveto
          -117 126 vlineto
          -55 callsubr
          -23 -4 -15 -11 -9 vhcurveto
          28 -24 -41 12 -63 hhcurveto
          -42 61 8 callgsubr
          -56 -39 vlineto
          -19 callsubr
          -29 -64 callgsubr
          63 40 vlineto
          16 12 -1 -3 10 hvcurveto
          -60 vlineto
          -17 2 -17 4 -15 vhcurveto
          -231 -279 273 callsubr
          59 71 31 37 27 44 17 35 rlinecurve
          -28 41 55 -15 65 24 callsubr
        </CharString>
        <CharString name="dvBH_VA">
          450 701 -94 callgsubr
          -454 -171 -55 callgsubr
          200 355 166 callsubr
          -93 -32 callgsubr
          38 callgsubr
          83 -105 vlineto
          -65 callsubr
          117 vlineto
          endchar
        </CharString>
        <CharString name="dvBH_YA">
          531 775 224 -16 callgsubr
          192 355 8 callsubr
          38 callgsubr
          40 vlineto
          16 12 -1 -3 10 hvcurveto
          -42 vlineto
          -89 callsubr
          117 vlineto
          endchar
        </CharString>
        <CharString name="dvB_BA">
          328 447 297 26 callgsubr
          -284 66 26 callsubr
          416 28 rmoveto
          -114 113 rlineto
          52 callsubr
          215 291 rmoveto
          -834 -117 619 221 callgsubr
          -123 -64 -39 -129 hvcurveto
          -80 vlineto
          -137 114 -78 callgsubr
          148 56 41 13 24 29 vhcurveto
          -27 33 49 -10 62 hhcurveto
          29 26 3 5 17 hvcurveto
          -61 133 554 82 vlineto
          endchar
        </CharString>
        <CharString name="dvB_BHA">
          492 307 callsubr
          257 -342 -55 callgsubr
          -355 -23 4 callsubr
          573 434 rmoveto
          -237 -78 79 vlineto
          -21 callgsubr
          -20 3 -17 117 callgsubr
          -3 19 13 56 callsubr
          -19 callsubr
          -18 vlineto
          -129 108 85 callsubr
          53 40 13 23 28 vhcurveto
          -22 28 41 -13 57 168 callgsubr
          109 84 -316 -46 callgsubr
        </CharString>
        <CharString name="dvB_BH_RA">
          491 260 13 callsubr
          -299 -117 299 hlineto
          257 -276 -41 callgsubr
          18 -74 callsubr
          39 hlineto
          -354 -42 4 callsubr
          572 434 rmoveto
          64 callsubr
          -123 -51 -60 -93 hvcurveto
          -27 vlineto
          -7 vlineto
          -127 106 85 callsubr
          81 50 30 52 26 vhcurveto
          -10 24 29 -5 36 hhcurveto
          121 52 60 93 hvcurveto
          145 callgsubr
        </CharString>
        <CharString name="dvB_DA">
          279 163 293 26 callsubr
          494 131 116 callsubr
          -784 -117 557 84 callgsubr
          -70 vlineto
          -127 106 -78 callgsubr
          148 54 39 12 23 27 vhcurveto
          -18 26 35 -9 47 hhcurveto
          27 22 3 3 12 hvcurveto
          57 callgsubr
        </CharString>
        <CharString name="dvB_DHA">
          349 163 293 4 callsubr
          430 434 135 callsubr
          -563 -117 362 hlineto
          0 -11 -17 -30 -19 callgsubr
          -3 162 callgsubr
          143 57 42 15 27 29 vhcurveto
          -24 32 46 -14 61 hhcurveto
          43 31 5 5 20 hvcurveto
          -67 -46 callgsubr
        </CharString>
        <CharString name="dvB_DH_VA">
          600 851 -94 callgsubr
          -689 -90 4 callsubr
          439 434 -37 callgsubr
          -539 -117 357 242 callgsubr
          -4 vlineto
          -129 108 85 callsubr
          59 42 16 28 29 vhcurveto
          -25 34 51 -15 71 hhcurveto
          63 45 13 12 37 hvcurveto
          -20 26 37 -10 53 9 callgsubr
          117 vlineto
          endchar
        </CharString>
        <CharString name="dvB_JA">
          505 305 265 28 callsubr
          798 434 rmoveto
          -1001 -117 789 -63 -267 -16 callsubr
          81 238 callgsubr
          72 hlineto
          endchar
        </CharString>
        <CharString name="dvB_JHA">
          634 878 328 rmoveto
          -298 hlineto
          234 callgsubr
          220 170 78 hlineto
          -715 -281 4 callsubr
          937 454 rmoveto
          -1140 -117 700 -50 -80 199 callsubr
          -10 vlineto
          -8 0 -8 1 -8 vhcurveto
          -107 -83 hlineto
          -128 107 99 callsubr
          20 16 -4 0 hvcurveto
          115 vlineto
          0 -20 4 -28 -143 -49 -64 -114 vhcurveto
          -97 287 callgsubr
          217 vlineto
          72 callgsubr
          -6 20 -8 12 vhcurveto
          79 -220 -26 callgsubr
        </CharString>
        <CharString name="dvB_J_YA">
          828 1072 -104 callsubr
          -767 -289 28 callsubr
          1131 434 rmoveto
          -1334 -117 903 160 callgsubr
          -219 -16 callsubr
          5 hlineto
          62 22 -9 -34 hvcurveto
          -58 vlineto
          -89 callsubr
          vlineto
          endchar
        </CharString>
        <CharString name="dvB_JxA">
          505 345 23 rmoveto
          -25 callgsubr
          -40 242 28 callsubr
          808 434 rmoveto
          -1011 -117 789 -63 -267 -16 callsubr
          81 -371 -26 callgsubr
        </CharString>
        <CharString name="dvB_LA">
          507 163 293 26 callsubr
          810 434 rmoveto
          -1013 -117 791 -66 hlineto
          62 callgsubr
          -74 vlineto
          -138 115 -78 callgsubr
          148 42 34 7 14 26 vhcurveto
          -50 30 57 -24 92 hhcurveto
          -3 callsubr
          hvcurveto
          -84 callsubr
        </CharString>
        <CharString name="dvB_L_YA">
          802 1046 -104 callsubr
          -884 -261 4 callsubr
          1106 434 rmoveto
          -1308 -117 877 74 callgsubr
          -20 -3 -14 -9 -10 vhcurveto
          49 -24 -47 29 -73 hhcurveto
          -58 -30 -24 -30 -20 hvcurveto
          122 callsubr
          -52 -60 -103 hvcurveto
          -66 162 callgsubr
          143 38 32 7 13 25 vhcurveto
          -49 28 53 -24 91 hhcurveto
          -3 callsubr
          hvcurveto
          -56 callsubr
          7 16 32 -50 callsubr
          -56 vlineto
          -89 callsubr
          vlineto
          endchar
        </CharString>
        <CharString name="dvB_NA">
          437 490 216 -102 callsubr
          -327 -21 rmoveto
          112 -90 rlineto
          -15 -8 -16 -7 -27 hhcurveto
          -48 -13 23 46 hvcurveto
          122 34 rmoveto
          -110 88 rlineto
          11 10 15 6 24 hhcurveto
          53 8 -23 -46 hvcurveto
          618 364 rmoveto
          -943 -117 721 -63 -227 hlineto
          -52 -38 -11 -20 -27 hvcurveto
          20 -26 -37 11 -52 hhcurveto
          -143 -49 -64 -114 hvcurveto
          -82 vlineto
          -114 49 -64 143 51 37 11 19 27 vhcurveto
          -20 26 39 -11 52 hhcurveto
          266 callsubr
          hvcurveto
          -34 callsubr
        </CharString>
        <CharString name="dvB_R">
          -155 163 298 rmoveto
          126 -93 rlineto
          -11 -11 -18 -6 -26 hhcurveto
          -53 -18 23 46 hvcurveto
          142 22 rmoveto
          -127 94 rlineto
          12 11 18 6 27 hhcurveto
          53 18 -23 -46 hvcurveto
          -275 -71 rmoveto
          -99 45 -55 93 -18 vhcurveto
          -158 -165 rlineto
          169 hlineto
          137 142 rlineto
          65 68 47 41 86 vvcurveto
          77 vlineto
          118 -63 60 -133 -153 -49 -64 -114 vhcurveto
          -70 343 rmoveto
          -117 491 240 callgsubr
        </CharString>
        <CharString name="dvB_RA">
          45 164 297 262 callgsubr
          132 30 rmoveto
          -114 113 rlineto
          52 callsubr
          -336 291 rmoveto
          -117 336 -59 vlineto
          184 callgsubr
          -123 -64 -39 -129 hvcurveto
          -109 212 callsubr
          240 callgsubr
        </CharString>
        <CharString name="dvB_SA">
          485 729 381 rmoveto
          -78 1 hlineto
          125 -66 callsubr
          84 hlineto
          -566 -261 26 callsubr
          788 434 rmoveto
          -991 -117 544 hlineto
          0 10 -4 callsubr
          -123 vlineto
          83 callsubr
          102 -140 -186 162 callgsubr
          148 39 32 7 12 26 vhcurveto
          -48 32 59 -29 89 hhcurveto
          12 callsubr
          hvcurveto
          -73 callgsubr
        </CharString>
        <CharString name="dvB_SHA">
          490 307 callsubr
          -98 -261 26 callsubr
          296 230 rmoveto
          -3 12 -1 11 15 vvcurveto
          23 6 19 108 callsubr
          -116 vlineto
          -23 -6 -15 -33 -21 -18 5 0 vhcurveto
          44 -140 -146 vlineto
          -138 115 -78 callgsubr
          148 45 36 9 16 27 vhcurveto
          -46 30 54 -30 84 hhcurveto
          12 callsubr
          hvcurveto
          -74 callgsubr
          126 vlineto
          -18 callgsubr
          415 204 rmoveto
          -671 -46 callgsubr
        </CharString>
        <CharString name="dvB_TA">
          317 163 293 26 callsubr
          620 434 rmoveto
          -823 -117 601 -64 hlineto
          333 callsubr
          -66 vlineto
          -138 115 -78 callgsubr
          148 37 30 6 11 24 vhcurveto
          -48 19 43 -24 84 hhcurveto
          178 callsubr
        </CharString>
        <CharString name="dvB_VA">
          291 542 -94 callgsubr
          -379 -90 rmoveto
          128 -107 rlineto
          -12 -11 -16 -6 -25 hhcurveto
          -58 -18 23 46 hvcurveto
          594 434 rmoveto
          -797 -117 575 -55 hlineto
          25 callsubr
          -81 162 callgsubr
          148 49 37 12 20 26 vhcurveto
          -22 26 39 -11 55 9 callgsubr
          vlineto
          endchar
        </CharString>
        <CharString name="dvB_YA">
          376 620 -104 callsubr
          -457 -261 26 callsubr
          679 434 rmoveto
          -882 -117 451 hlineto
          -43 callgsubr
          -5 162 callgsubr
          148 76 49 25 42 28 vhcurveto
          -22 39 50 -12 58 -40 callgsubr
        </CharString>
        <CharString name="dvC">
          286 callsubr
          6 -371 rmoveto
          -4 -12 -25 -3 -19 hhcurveto
          -33 -25 -2 callsubr
          56 -53 115 26 37 3 5 20 vhcurveto
          endchar
        </CharString>
        <CharString name="dvCA">
          63 207 315 rmoveto
          255 callgsubr
          -258 -126 60 hlineto
          0 -6 -19 -30 vvcurveto
          -97 246 callgsubr
          117 -568 -117 347 -371 vlineto
          134 callgsubr
          endchar
        </CharString>
        <CharString name="dvCH">
          129 346 501 rmoveto
          107 callsubr
          359 117 -635 -117 101 hlineto
          -11 -16 -5 -20 -20 vvcurveto
          -130 vlineto
          51 callgsubr
          110 -72 44 -102 vhcurveto
          endchar
        </CharString>
        <CharString name="dvCHA">
          129 40 368 rmoveto
          51 callgsubr
          67 -14 44 -40 21 vhcurveto
          75 133 117 -634 -117 91 86 callgsubr
          endchar
        </CharString>
        <CharString name="dvCH_R">
          129 213 -138 43 callgsubr
          -163 309 -9 callsubr
        </CharString>
        <CharString name="dvCH_RA">
          129 176 171 -9 callsubr
        </CharString>
        <CharString name="dvCH_R_YA">
          656 908 60 callsubr
          1 vlineto
          76 36 38 77 hvcurveto
          37 199 callgsubr
          -206 52 447 hlineto
          -732 -383 rmoveto
          -53 callgsubr
          -140 vlineto
          -40 -13 -20 -89 -89 -12 9 37 vhcurveto
          954 503 rmoveto
          -1170 -117 91 hlineto
          77 callsubr
          -23 vlineto
          -79 33 -48 79 -22 vhcurveto
          -50 -110 130 callgsubr
          36 96 rlineto
          3 hlineto
          36 -96 130 callgsubr
          -51 111 rlineto
          80 24 28 53 86 vvcurveto
          172 vlineto
          10 0 9 -1 9 vhcurveto
          158 216 callgsubr
          -15 vlineto
          -22 -7 -8 -27 vhcurveto
          -79 -90 -5 callsubr
        </CharString>
        <CharString name="dvCH_YA">
          656 900 60 callsubr
          4 vlineto
          76 36 38 77 hvcurveto
          26 199 callgsubr
          -249 hlineto
          5 -19 -22 2 -23 hhcurveto
          107 callsubr
          664 hlineto
          93 callgsubr
          -1162 -117 101 hlineto
          -11 -16 -5 -20 -20 vvcurveto
          -130 vlineto
          51 callgsubr
          7 0 7 -1 6 vhcurveto
          145 216 callgsubr
          -4 vlineto
          -22 -7 -8 -27 vhcurveto
          -79 -93 -5 callsubr
        </CharString>
        <CharString name="dvC_CA">
          313 778 13 callsubr
          -818 -117 597 -371 hlineto
          134 callgsubr
          91 vlineto
          255 callgsubr
          -228 -120 30 hlineto
          0 -6 -25 -30 vvcurveto
          -97 vlineto
          -14 1 -13 1 -12 vhcurveto
          -3 -13 -15 -1 -16 hhcurveto
          -37 -31 13 35 hvcurveto
          91 vlineto
          190 callsubr
          27 120 -232 -126 60 hlineto
          0 -6 -19 -30 vvcurveto
          -97 vlineto
          -113 78 -53 115 59 40 11 10 25 vhcurveto
          -14 26 33 -7 41 272 callsubr
        </CharString>
        <CharString name="dvC_CHA">
          425 676 182 rmoveto
          116 callgsubr
          3 vlineto
          -53 callgsubr
          215 232 rmoveto
          117 -931 -117 388 231 callgsubr
          -1 vlineto
          -4 -17 -19 -2 -21 hhcurveto
          -37 -31 -2 callsubr
          78 -53 115 42 32 5 7 24 vhcurveto
          -47 33 69 -21 114 hhcurveto
          181 57 55 123 hvcurveto
          297 callgsubr
        </CharString>
        <CharString name="dvC_CH_VA">
          426 625 -124 rmoveto
          -5 -18 -17 -3 -27 hhcurveto
          -45 -17 15 35 hvcurveto
          27 vlineto
          35 17 17 45 vhcurveto
          0 11 vlineto
          18 17 1 1 16 hvcurveto
          -152 172 rmoveto
          -53 callgsubr
          -140 vlineto
          -40 -13 -20 -89 -89 -12 9 37 vhcurveto
          418 386 rmoveto
          117 -931 -117 388 231 callgsubr
          -1 vlineto
          -4 -17 -19 -2 -21 hhcurveto
          -37 -31 -2 callsubr
          78 -53 115 42 32 5 7 24 vhcurveto
          11 -16 16 -13 21 -11 rrcurveto
          -23 -16 -15 -25 -39 vvcurveto
          -33 vlineto
          -113 70 -46 113 30 23 3 5 20 vhcurveto
          -41 141 323 vlineto
          34 29 13 44 59 vvcurveto
          297 callgsubr
        </CharString>
        <CharString name="dvC_MA">
          490 737 128 callsubr
          -341 rmoveto
          -95 callsubr
          427 343 rmoveto
          -996 -117 569 -108 134 callsubr
          -86 vlineto
          -10 1 -9 1 -10 vhcurveto
          -2 -14 -14 -1 -16 hhcurveto
          -37 -31 -2 callsubr
          78 -53 115 63 41 12 10 24 vhcurveto
          -13 26 34 -7 42 52 callgsubr
        </CharString>
        <CharString name="dvC_NA">
          471 524 216 -102 callsubr
          413 370 rmoveto
          -977 -117 755 291 callgsubr
          -12 1 -12 1 -11 vhcurveto
          -2 -14 -16 -2 -16 hhcurveto
          -37 -31 -2 callsubr
          78 -53 115 60 40 11 10 25 vhcurveto
          -14 26 33 -8 44 hhcurveto
          266 callsubr
          hvcurveto
          -34 callsubr
        </CharString>
        <CharString name="dvC_R">
          286 callsubr
          -108 -239 rmoveto
          255 callgsubr
          -258 -126 60 hlineto
          0 -6 -19 -30 vvcurveto
          -67 vlineto
          -94 39 -52 78 -15 vhcurveto
          -168 -150 304 callgsubr
          141 134 rlineto
          143 vlineto
          -4 -12 -19 -5 -30 hhcurveto
          -36 -26 13 35 hvcurveto
          endchar
        </CharString>
        <CharString name="dvC_RA">
          66 279 callsubr
          350 -320 vlineto
          134 callgsubr
          40 vlineto
          255 callgsubr
          -248 -126 50 hlineto
          0 -6 -19 -30 vvcurveto
          -33 vlineto
          -80 26 -50 56 -22 vhcurveto
          -114 -141 273 callsubr
          110 135 rlineto
          0 vlineto
          -125 -46 callgsubr
        </CharString>
        <CharString name="dvC_YA">
          408 652 -104 callsubr
          93 callgsubr
          -914 -117 483 hlineto
          -43 callgsubr
          -31 6 -27 12 -24 vhcurveto
          -7 -24 -26 -5 -27 hhcurveto
          -37 -34 -2 callsubr
          81 -53 127 88 49 27 26 38 vhcurveto
          -13 34 40 -7 45 -40 callgsubr
        </CharString>
        <CharString name="dvCandrabindu">
          -426 -181 980 rmoveto
          -40 14 -30 56 235 callgsubr
          vhcurveto
          140 -74 17 callsubr
        </CharString>
        <CharString name="dvD">
          4 523 35 callsubr
          -349 446 rmoveto
          -103 48 -53 113 27 22 3 3 12 vhcurveto
          -68 callgsubr
          172 292 callsubr
          hlineto
          -123 -58 -39 -120 hvcurveto
          endchar
        </CharString>
        <CharString name="dvDA">
          4 30 217 rmoveto
          -103 48 -53 113 27 22 3 3 12 vhcurveto
          -68 callgsubr
          172 292 callsubr
          hlineto
          -123 -58 -39 -120 hvcurveto
          endchar
        </CharString>
        <CharString name="dvDA_mvR">
          4 383 368 rmoveto
          292 callsubr
          vlineto
          -123 -58 -39 -120 hvcurveto
          -89 vlineto
          -103 48 -53 113 17 29 3 5 17 vhcurveto
          -46 vlineto
          -107 -7 -47 -59 -101 vvcurveto
          -108 70 -60 123 35 29 2 6 36 230 callgsubr
          -5 -33 -26 -3 -36 hhcurveto
          -37 -23 7 33 33 24 7 37 33 16 -3 -5 44 hvcurveto
          360 -140 -57 vlineto
          0 -19 -7 -22 327 callsubr
          79 177 callsubr
        </CharString>
        <CharString name="dvDD">
          4 172 -58 43 callgsubr
          -338 729 rmoveto
          -117 278 -50 -34 vlineto
          -113 -56 -39 -103 hvcurveto
          9 callsubr
          174 170 91 117 hlineto
          endchar
        </CharString>
        <CharString name="dvDDA">
          3 378 255 callsubr
          -509 -117 278 -50 -34 vlineto
          -113 -56 -39 -103 hvcurveto
          -37 callsubr
        </CharString>
        <CharString name="dvDDH">
          9 426 35 callsubr
          -73 728 rmoveto
          265 callgsubr
          -113 58 -59 130 130 54 268 callsubr
          -50 callgsubr
          174 284 callsubr
          -514 -117 285 -55 hlineto
          endchar
        </CharString>
        <CharString name="dvDDHA">
          9 209 499 rmoveto
          265 callgsubr
          -113 58 -59 130 130 54 268 callsubr
          -50 callgsubr
          174 284 callsubr
          -514 -117 285 -55 hlineto
          endchar
        </CharString>
        <CharString name="dvDDH_DDHA">
          46 391 382 207 callsubr
          -45 12 -36 23 -26 vhcurveto
          -26 -25 -12 -35 -47 vvcurveto
          -133 vlineto
          -108 68 -54 130 130 64 49 108 vhcurveto
          138 callsubr
          19 24 14 -6 -28 vhcurveto
          -1 295 callgsubr
          43 10 14 43 vhcurveto
          10 hlineto
          130 64 49 108 hvcurveto
          138 callsubr
          19 24 14 -6 -28 vhcurveto
          -1 243 callsubr
        </CharString>
        <CharString name="dvDDH_R">
          9 175 -159 43 callgsubr
          -341 830 rmoveto
          -117 285 291 callsubr
          -69 21 -49 47 -27 vhcurveto
          -58 -126 130 callgsubr
          37 99 rlineto
          1 hlineto
          37 -99 130 callgsubr
          -58 128 rlineto
          41 26 18 46 66 vvcurveto
          -50 callgsubr
          174 284 callsubr
          hlineto
          endchar
        </CharString>
        <CharString name="dvDDH_RA">
          9 383 372 rmoveto
          284 callsubr
          -514 -117 285 291 callsubr
          -68 21 -48 45 -28 vhcurveto
          -56 -122 130 callgsubr
          35 94 rlineto
          0 5 vlineto
          35 -94 130 callgsubr
          -57 124 rlineto
          40 27 18 45 65 vvcurveto
          -50 callgsubr
          endchar
        </CharString>
        <CharString name="dvDDH_VA">
          46 270 -60 rmoveto
          -5 -9 -17 253 callsubr
          27 vlineto
          45 8 8 47 10 10 0 1 9 vhcurveto
          121 330 207 callsubr
          -51 15 -35 29 -23 vhcurveto
          -20 -18 -13 -26 -36 263 callgsubr
          310 vlineto
          23 22 11 32 45 vvcurveto
          138 callsubr
          22 21 14 -9 -22 vhcurveto
          -4 243 callsubr
        </CharString>
        <CharString name="dvDDH_YA">
          541 785 60 callsubr
          4 vlineto
          76 36 38 77 hvcurveto
          31 199 callgsubr
          -161 55 402 hlineto
          93 callgsubr
          -1047 -117 285 -55 -36 hlineto
          265 callgsubr
          -113 58 -59 130 130 54 268 callsubr
          -50 callgsubr
          340 216 callgsubr
          -9 vlineto
          -22 -7 -8 -27 vhcurveto
          -79 -93 -5 callsubr
        </CharString>
        <CharString name="dvDDHxA">
          9 209 499 rmoveto
          265 callgsubr
          -113 58 -59 130 130 54 268 callsubr
          15 vlineto
          113 -50 39 -98 -29 -19 -8 0 vhcurveto
          -123 vlineto
          0 11 8 18 20 13 -6 -28 vhcurveto
          -2 vlineto
          -31 -8 -16 -42 -42 -8 18 31 vhcurveto
          163 vlineto
          23 4 14 33 vhcurveto
          174 284 callsubr
          -514 -117 285 -55 hlineto
          -95 -623 rmoveto
          248 callgsubr
        </CharString>
        <CharString name="dvDD_DDA">
          29 227 callgsubr
          -45 -81 hvcurveto
          -12 vlineto
          -110 70 -18 112 vhcurveto
          20 hlineto
          31 10 -10 -18 270 callgsubr
          14 -3 16 -4 18 -2 rrcurveto
          -6 -16 -2 -16 -15 vvcurveto
          -110 87 -18 82 vhcurveto
          13 hlineto
          32 8 -11 -19 1 hvcurveto
          -6 vlineto
          -25 -23 -7 -54 -56 -73 11 9 -40 vhcurveto
          -115 vlineto
          -11 47 63 -9 59 hhcurveto
          151 71 44 99 hvcurveto
          215 callsubr
          -24 -8 6 20 19 9 8 23 hvcurveto
          0 vlineto
          138 4 65 44 95 vvcurveto
          215 callsubr
          -23 -8 6 18 -1 hvcurveto
          4 vlineto
          19 9 6 23 vhcurveto
          endchar
        </CharString>
        <CharString name="dvDD_DDHA">
          27 227 callgsubr
          -43 -93 hvcurveto
          -6 vlineto
          -105 72 -19 110 vhcurveto
          20 hlineto
          31 10 -11 -17 270 callgsubr
          10 -2 11 -3 12 -2 rrcurveto
          -16 -26 -8 -33 -38 vvcurveto
          -103 vlineto
          -108 68 -54 130 130 64 49 108 vhcurveto
          138 callsubr
          19 24 14 -8 -23 vhcurveto
          -4 295 callgsubr
          38 7 16 25 3 vhcurveto
          148 74 42 101 hvcurveto
          215 callsubr
          -24 -8 6 20 19 9 8 23 hvcurveto
          endchar
        </CharString>
        <CharString name="dvDD_R">
          -1 160 -159 43 callgsubr
          -334 830 rmoveto
          64 callgsubr
          14 -3 14 -3 14 -2 -49 -108 rcurveline
          289 callgsubr
          -59 129 rlineto
          -7 hlineto
          47 27 22 45 65 vvcurveto
          177 callgsubr
        </CharString>
        <CharString name="dvDD_RA">
          4 378 255 callsubr
          -509 64 callgsubr
          13 -3 12 -2 13 -3 -45 -97 rcurveline
          143 hlineto
          33 89 rlineto
          9 hlineto
          33 -89 130 callgsubr
          -57 124 rlineto
          40 27 20 43 61 133 callgsubr
          endchar
        </CharString>
        <CharString name="dvDD_VA">
          38 270 -60 rmoveto
          -5 -9 -17 253 callsubr
          27 vlineto
          37 5 12 28 3 vhcurveto
          18 17 1 1 16 hvcurveto
          137 343 rmoveto
          159 95 117 -542 -117 301 -55 -25 vlineto
          -128 -58 -45 -81 hvcurveto
          -12 vlineto
          -110 70 -18 112 vhcurveto
          20 hlineto
          32 8 -12 -18 1 hvcurveto
          -4 vlineto
          -32 -34 -2 -43 -56 -89 11 9 -40 vhcurveto
          -115 vlineto
          10 -2 12 -3 13 -2 rrcurveto
          -8 -15 -5 -18 -22 263 callgsubr
          314 vlineto
          26 23 12 32 41 vvcurveto
          215 callsubr
          -23 285 callsubr
          3 vlineto
          19 9 8 23 vhcurveto
          endchar
        </CharString>
        <CharString name="dvDD_YA">
          533 777 60 callsubr
          4 vlineto
          76 36 38 77 hvcurveto
          43 vlineto
          103 -54 33 -121 vhcurveto
          -158 50 399 hlineto
          93 callgsubr
          -1039 283 callgsubr
          199 callsubr
          9 callsubr
          337 216 callgsubr
          -21 vlineto
          -22 -7 -8 -27 vhcurveto
          -79 -93 -5 callsubr
        </CharString>
        <CharString name="dvDDxA">
          4 225 -49 rmoveto
          -59 -16 -33 -42 -78 callsubr
          hvcurveto
          153 433 200 callgsubr
          -509 -117 278 -50 -34 vlineto
          -113 -56 -39 -103 hvcurveto
          -37 callsubr
        </CharString>
        <CharString name="dvDH">
          -144 343 192 rmoveto
          -8 -27 -41 329 callsubr
          -30 -81 callsubr
          10 13 0 vhcurveto
          38 117 -269 -117 87 242 callgsubr
          -51 vlineto
          -92 65 -68 131 37 43 3 7 32 vhcurveto
          endchar
        </CharString>
        <CharString name="dvDHA">
          79 52 554 rmoveto
          144 callgsubr
          -222 -479 vlineto
          -6 -24 -20 -4 -30 hhcurveto
          -45 -29 -81 callsubr
          16 13 0 vhcurveto
          56 117 -293 -117 hlineto
          endchar
        </CharString>
        <CharString name="dvDH_MA">
          517 764 128 callsubr
          -341 rmoveto
          -95 callsubr
          -225 343 rmoveto
          -117 225 -108 -39 vlineto
          -19 callsubr
          -86 vlineto
          -5 0 -5 -5 vvcurveto
          -7 -27 -25 callsubr
          -269 -28 callsubr
          67 48 15 12 37 vhcurveto
          -19 28 39 -10 51 168 callgsubr
          120 74 -328 225 callgsubr
          240 callgsubr
        </CharString>
        <CharString name="dvDH_NA">
          490 543 216 -102 callsubr
          -235 370 rmoveto
          -117 426 -63 -227 vlineto
          -43 callsubr
          -113 vlineto
          -8 0 -8 1 -8 162 callsubr
          38 117 -269 -28 callsubr
          63 45 13 12 36 vhcurveto
          -20 27 38 -10 51 hhcurveto
          266 callsubr
          hvcurveto
          155 callgsubr
        </CharString>
        <CharString name="dvDH_N_YA">
          826 1070 -104 callsubr
          -521 -338 -102 callsubr
          743 370 rmoveto
          -968 -117 537 243 callgsubr
          -179 hlineto
          -43 callsubr
          -113 vlineto
          -8 0 -7 1 -7 vhcurveto
          -7 -28 -25 callsubr
          -269 -28 callsubr
          65 46 14 12 38 vhcurveto
          -20 26 39 -11 52 hhcurveto
          266 callsubr
          hvcurveto
          -64 callsubr
          32 hlineto
          36 13 -17 -32 hvcurveto
          -43 vlineto
          -89 callsubr
          vlineto
          endchar
        </CharString>
        <CharString name="dvDH_R">
          -144 175 280 140 callgsubr
          20 281 callgsubr
          58 117 -289 94 callgsubr
        </CharString>
        <CharString name="dvDH_RA">
          83 327 671 136 callgsubr
          -299 -117 91 hlineto
          0 -6 -16 -31 vvcurveto
          -32 vlineto
          -46 13 -30 25 -19 vhcurveto
          -29 -17 -15 -31 -54 163 callgsubr
        </CharString>
        <CharString name="dvDH_VA">
          330 581 -94 callgsubr
          -250 288 -37 callgsubr
          -269 -28 callsubr
          63 45 13 12 37 vhcurveto
          -20 26 37 -10 53 9 callgsubr
          117 vlineto
          endchar
        </CharString>
        <CharString name="dvDH_YA">
          415 659 -104 callsubr
          -328 117 rmoveto
          -117 119 vlineto
          -43 callgsubr
          -27 5 -24 9 -22 vhcurveto
          -9 -35 -36 -6 -32 hhcurveto
          -53 -27 -81 callsubr
          10 13 0 vhcurveto
          38 117 -269 -117 87 hlineto
          104 callgsubr
        </CharString>
        <CharString name="dvD_BA">
          46 290 30 rmoveto
          -99 80 rlineto
          2 6 8 1 9 hhcurveto
          15 37 0 12 24 hvcurveto
          -124 -84 rmoveto
          107 -87 rlineto
          -6 -9 -14 -4 -22 hhcurveto
          -57 -5 25 35 hvcurveto
          255 364 rmoveto
          186 91 117 -552 287 callsubr
          -89 292 callgsubr
          -59 vlineto
          -108 50 -56 143 143 56 61 109 1 vhcurveto
          303 -138 -82 vlineto
          -4 -16 -18 -3 -22 hhcurveto
          -45 -11 19 29 hvcurveto
          59 vlineto
          29 11 18 45 vhcurveto
          endchar
        </CharString>
        <CharString name="dvD_BHA">
          162 172 -130 rmoveto
          -9 13 -3 11 18 14 23 16 rcurveline
          18 -26 9 -13 3 -11 -19 -13 rlinecurve
          -19 -14 -10 7 -9 13 rrcurveto
          367 501 116 callsubr
          -668 -117 441 219 callgsubr
          -74 25 -48 55 -21 vhcurveto
          -36 -26 -29 39 -42 59 -54 14 -70 -52 rlinecurve
          -68 -49 -6 -56 41 -58 15 -23 rcurveline
          80 58 -15 19 -9 13 -4 10 19 14 rlinecurve
          18 13 8 -8 10 -12 27 -38 rcurveline
          -22 -16 -70 -50 -5 -55 38 -52 rlinecurve
          6 -9 38 -53 53 -14 70 51 rlinecurve
          70 49 4 55 -38 53 -20 28 rcurveline
          123 87 4 1 3 0 3 1 rlinecurve
          57 callgsubr
        </CharString>
        <CharString name="dvD_B_RA">
          40 290 67 rmoveto
          -98 74 rlineto
          1 6 8 1 8 hhcurveto
          15 37 0 12 24 hvcurveto
          -124 -80 rmoveto
          106 -81 rlineto
          -7 -9 -14 -3 -21 hhcurveto
          -57 -5 25 35 hvcurveto
          255 324 rmoveto
          186 85 117 -546 287 callsubr
          -59 292 callgsubr
          -49 vlineto
          -83 29 -43 69 -16 vhcurveto
          -97 -119 337 callsubr
          100 123 rlineto
          1 -77 138 484 -138 -48 hlineto
          -6 -14 -19 -5 -23 hhcurveto
          -45 -11 19 29 hvcurveto
          29 vlineto
          29 11 18 45 vhcurveto
          endchar
        </CharString>
        <CharString name="dvD_DA">
          6 388 402 rmoveto
          152 84 117 -512 315 callsubr
          -45 -52 vlineto
          -113 -48 -39 -100 hvcurveto
          -10 vlineto
          -44 13 -29 25 -17 vhcurveto
          -25 -18 -13 -29 -44 vvcurveto
          -49 vlineto
          -93 48 -53 113 34 27 5 0 vhcurveto
          -56 140 228 -140 -59 vlineto
          0 -19 -5 -22 327 callsubr
          39 76 callgsubr
          113 117 -113 hlineto
          -35 -6 13 23 hvcurveto
          2 vlineto
          23 205 callsubr
          endchar
        </CharString>
        <CharString name="dvD_DHA">
          195 583 368 rmoveto
          186 78 117 -701 -117 483 219 callgsubr
          -66 20 -46 44 -24 vhcurveto
          -65 -1 -14 -4 -62 hhcurveto
          -40 -33 4 35 hvcurveto
          10 vlineto
          19 3 14 30 vhcurveto
          25 109 -20 hlineto
          -30 -3 14 20 hvcurveto
          11 vlineto
          20 3 14 30 vhcurveto
          19 108 -19 71 callsubr
        </CharString>
        <CharString name="dvD_GA">
          22 395 368 rmoveto
          186 93 117 -528 -117 295 219 callgsubr
          -56 14 -42 32 -26 vhcurveto
          -48 vlineto
          -32 -8 -11 -35 vhcurveto
          -17 -119 hlineto
          0 20 -3 22 112 36 38 113 vhcurveto
          31 vlineto
          15 1 19 4 12 4 rrcurveto
          -231 140 438 -140 -89 vlineto
          0 -17 -5 -24 327 callsubr
          91 callgsubr
          endchar
        </CharString>
        <CharString name="dvD_GHA">
          200 144 61 rmoveto
          19 3 14 30 vhcurveto
          25 109 -20 hlineto
          -30 -3 14 20 hvcurveto
          11 vlineto
          20 3 14 30 vhcurveto
          48 -65 hlineto
          -66 20 -46 44 -24 vhcurveto
          -65 -1 -14 -4 -62 hhcurveto
          -40 -33 4 35 hvcurveto
          439 317 rmoveto
          186 83 117 -706 -117 483 -59 -32 vlineto
          -102 -58 -27 -78 -16 hvcurveto
          -53 71 callsubr
        </CharString>
        <CharString name="dvD_G_RA">
          11 390 368 116 callsubr
          -517 -117 290 84 callgsubr
          -69 vlineto
          -49 11 -37 23 -26 vhcurveto
          -46 vlineto
          -32 -8 -11 -35 vhcurveto
          -17 -118 hlineto
          0 16 -4 26 112 36 38 113 vhcurveto
          16 vlineto
          15 25 3 8 18 hvcurveto
          -98 vlineto
          -216 -263 rlineto
          142 hlineto
          7 9 34 43 29 38 18 39 rlinecurve
          2 hlineto
          -5 -18 0 -19 -19 vvcurveto
          -33 129 497 -140 -59 vlineto
          0 -18 -5 -23 327 callsubr
          59 177 callsubr
        </CharString>
        <CharString name="dvD_MA">
          261 508 86 rmoveto
          -103 206 -133 -63 hlineto
          0 -17 -10 -34 -45 -6 19 24 vhcurveto
          64 vlineto
          24 6 18 45 vhcurveto
          182 186 105 hlineto
          219 117 rmoveto
          -767 -117 303 -59 -42 hlineto
          -133 -58 -44 -120 hvcurveto
          -69 vlineto
          -103 53 -61 118 15 43 3 9 13 vhcurveto
          -206 132 64 104 -145 137 731 82 vlineto
          endchar
        </CharString>
        <CharString name="dvD_NA">
          5 383 368 rmoveto
          292 callsubr
          vlineto
          -123 -58 -39 -120 hvcurveto
          -109 vlineto
          -71 23 -38 51 -16 vhcurveto
          -27 -23 -85 -71 -10 -77 51 -53 rlinecurve
          34 -36 43 1 0 vvcurveto
          86 77 rlineto
          0 -26 5 -15 16 vhcurveto
          -17 18 -7 25 32 29 89 80 rcurveline
          -93 140 278 -140 -78 vlineto
          -3 -10 -12 -3 -17 hhcurveto
          -35 -8 14 24 hvcurveto
          99 177 callsubr
        </CharString>
        <CharString name="dvD_R">
          12 400 hmoveto
          278 -140 -54 vlineto
          -25 -6 -13 -35 327 callsubr
          107 76 callgsubr
          172 186 87 117 -518 -117 291 -59 -32 hlineto
          -123 -58 -39 -120 hvcurveto
          -117 vlineto
          -69 22 -38 49 -17 vhcurveto
          -88 -158 rlineto
          150 hlineto
          89 160 rlineto
          0 vlineto
          -97 vlineto
          147 -63 rmoveto
          157 callgsubr
          144 hlineto
          endchar
        </CharString>
        <CharString name="dvD_RA">
          12 391 368 116 callsubr
          -518 -117 291 84 callgsubr
          -109 34 callsubr
        </CharString>
        <CharString name="dvD_VA">
          10 258 202 callgsubr
          131 253 116 callsubr
          -516 -117 289 84 callgsubr
          109 callsubr
        </CharString>
        <CharString name="dvD_YA">
          79 545 13 callsubr
          -585 -117 153 -54 hlineto
          -54 -9 -29 -24 -74 vvcurveto
          -18 vlineto
          -39 15 -30 28 -21 vhcurveto
          -25 -23 -13 -33 -40 vvcurveto
          -20 vlineto
          -92 47 -63 141 42 42 5 7 26 vhcurveto
          -26 130 554 82 vlineto
          -222 hmoveto
          -405 vlineto
          -7 -19 -32 -3 -25 hhcurveto
          -55 -17 8 41 hvcurveto
          4 vlineto
          23 11 20 33 vhcurveto
          34 109 -44 -14 callgsubr
          5 152 callgsubr
          127 hlineto
          endchar
        </CharString>
        <CharString name="dvE">
          15 380 142 rmoveto
          55 callgsubr
          -521 -117 81 -370 vlineto
          232 callsubr
          endchar
        </CharString>
        <CharString name="dvEcandra">
          15 294 901 rmoveto
          37 callgsubr
          72 256 callgsubr
          -54 -759 rmoveto
          55 callgsubr
          -521 -117 81 -370 vlineto
          232 callsubr
          endchar
        </CharString>
        <CharString name="dvEight">
          19 callgsubr
        </CharString>
        <CharString name="dvEyelash">
          -151 -40 554 rmoveto
          498 117 -498 hlineto
          498 -319 rmoveto
          -219 hlineto
          -50 196 callsubr
          218 hlineto
          endchar
        </CharString>
        <CharString name="dvEyelash_HA">
          240 611 388 rmoveto
          251 callgsubr
          -746 -117 511 -46 -47 vlineto
          -112 -56 -35 -94 -1 hvcurveto
          -30 hlineto
          -51 196 callsubr
          58 hlineto
          -18 -19 -9 -26 -38 vvcurveto
          -24 vlineto
          -101 61 -57 135 67 55 6 11 47 vhcurveto
          118 vlineto
          -10 -48 -40 -4 -71 hhcurveto
          -46 -20 13 33 hvcurveto
          20 -44 callsubr
          endchar
        </CharString>
        <CharString name="dvEyelash_YA">
          315 559 318 callgsubr
          24 331 callgsubr
          94 221 callsubr
          -599 117 rmoveto
          -117 390 vlineto
          -39 callgsubr
          -65 vlineto
          81 callsubr
          -43 hlineto
          -51 196 callsubr
          19 -5 hlineto
          -117 93 -50 -70 callgsubr
          117 vlineto
          endchar
        </CharString>
        <CharString name="dvFive">
          79 callgsubr
        </CharString>
        <CharString name="dvFour">
          147 callsubr
        </CharString>
        <CharString name="dvG">
          -167 234 554 330 callsubr
          -207 hlineto
          -91 callgsubr
          endchar
        </CharString>
        <CharString name="dvGA">
          68 533 13 callsubr
          -573 -117 134 -207 hlineto
          -91 callgsubr
          219 210 callgsubr
        </CharString>
        <CharString name="dvGH">
          -144 333 192 rmoveto
          -8 -27 -34 -2 -25 hhcurveto
          -45 -27 -81 callsubr
          10 13 0 vhcurveto
          131 117 -362 -20 callsubr
          131 37 37 3 7 32 vhcurveto
          endchar
        </CharString>
        <CharString name="dvGHA">
          79 544 13 callsubr
          -584 -20 callsubr
          131 37 27 3 7 32 vhcurveto
          -67 314 callgsubr
          -221 hmoveto
          -362 vlineto
          -8 -27 -24 -2 -25 hhcurveto
          -45 -27 -81 callsubr
          10 13 0 vhcurveto
          endchar
        </CharString>
        <CharString name="dvGH_MA">
          511 758 115 callgsubr
          -123 -50 -59 -93 hvcurveto
          -86 vlineto
          -6 0 -5 1 -6 162 callsubr
          359 142 callsubr
          427 343 rmoveto
          -1017 -28 callsubr
          65 46 14 12 37 vhcurveto
          -18 28 38 -10 50 52 callgsubr
        </CharString>
        <CharString name="dvGH_NA">
          490 734 491 rmoveto
          308 callsubr
          -8 0 -8 1 -8 162 callsubr
          543 hlineto
          -191 -338 -102 callsubr
          413 370 rmoveto
          -996 -28 callsubr
          63 45 13 12 36 vhcurveto
          -20 27 38 -10 51 hhcurveto
          266 callsubr
          hvcurveto
          -34 callsubr
        </CharString>
        <CharString name="dvGH_R">
          -144 175 280 140 callgsubr
          20 281 callgsubr
          131 117 -362 94 callgsubr
        </CharString>
        <CharString name="dvGH_RA">
          83 179 273 140 callgsubr
          27 281 callgsubr
          132 -342 hlineto
          -8 -27 -24 299 callsubr
          -219 416 rmoveto
          -117 91 vlineto
          0 -6 -16 -31 vvcurveto
          -32 -45 callgsubr
          -16 vlineto
          -71 36 -57 77 -22 vhcurveto
          -139 -162 304 callgsubr
          141 162 rlineto
          0 vlineto
          -112 -46 callgsubr
        </CharString>
        <CharString name="dvGH_YA">
          409 653 -104 callsubr
          -478 -291 rmoveto
          -66 callgsubr
          10 13 0 vhcurveto
          253 hlineto
          -43 callgsubr
          -28 5 -24 10 -22 vhcurveto
          -9 -33 -35 -5 -30 hhcurveto
          -53 -27 12 41 hvcurveto
          700 436 rmoveto
          -915 -28 callsubr
          81 84 24 24 44 vhcurveto
          -13 33 38 -6 43 -40 callgsubr
        </CharString>
        <CharString name="dvG_BA">
          310 429 15 callsubr
          215 291 rmoveto
          -816 -117 134 -207 hlineto
          -91 callgsubr
          219 327 161 callsubr
          vlineto
          endchar
        </CharString>
        <CharString name="dvG_BHA">
          487 234 554 rmoveto
          28 117 -302 -117 134 -207 hlineto
          -91 callgsubr
          279 -123 33 callgsubr
        </CharString>
        <CharString name="dvG_BH_YA">
          780 -40 554 rmoveto
          134 -207 hlineto
          -91 callgsubr
          219 21 117 -295 vlineto
          1064 -447 -16 callgsubr
          192 355 rmoveto
          -117 126 vlineto
          -55 callsubr
          -37 -12 -17 -34 -6 vhcurveto
          25 -24 -40 10 -59 hhcurveto
          -16 22 callgsubr
          38 callgsubr
          14 vlineto
          44 20 -9 -33 hvcurveto
          -4 vlineto
          -89 callsubr
          117 vlineto
          endchar
        </CharString>
        <CharString name="dvG_DA">
          280 659 368 116 callsubr
          -786 -117 134 -207 vlineto
          -91 callgsubr
          219 285 219 callgsubr
          -103 48 -53 113 27 22 3 3 12 vhcurveto
          57 callgsubr
        </CharString>
        <CharString name="dvG_DHA">
          350 594 671 135 callsubr
          -564 -117 134 -207 hlineto
          -91 callgsubr
          219 89 vlineto
          144 callgsubr
          vlineto
          endchar
        </CharString>
        <CharString name="dvG_DH_VA">
          601 852 -94 callgsubr
          -250 288 -37 callgsubr
          -540 100 callsubr
          151 63 45 13 12 37 vhcurveto
          -20 26 37 -10 53 9 callgsubr
          117 vlineto
          endchar
        </CharString>
        <CharString name="dvG_DH_YA">
          686 930 -104 callsubr
          -328 117 rmoveto
          -117 119 vlineto
          -43 callgsubr
          -27 5 -24 9 -22 vhcurveto
          -9 -35 -36 -6 -32 hhcurveto
          -53 -27 -81 callsubr
          10 13 0 vhcurveto
          38 117 -540 -117 134 -207 hlineto
          -91 callgsubr
          219 84 vlineto
          104 callgsubr
        </CharString>
        <CharString name="dvG_GA">
          326 791 13 callsubr
          -831 -117 134 -207 hlineto
          -91 callgsubr
          219 118 -207 vlineto
          -91 callgsubr
          219 210 callgsubr
        </CharString>
        <CharString name="dvG_GHA">
          350 594 192 rmoveto
          -8 -27 -24 -2 -25 hhcurveto
          -45 -27 -81 callsubr
          10 13 0 vhcurveto
          132 hlineto
          221 117 rmoveto
          -855 100 callsubr
          131 37 27 3 7 32 vhcurveto
          -67 313 callgsubr
        </CharString>
        <CharString name="dvG_JA">
          408 873 13 callsubr
          -913 -117 134 -207 hlineto
          -91 callgsubr
          219 418 -63 -322 -129 99 -15 callgsubr
        </CharString>
        <CharString name="dvG_LA">
          488 954 13 callsubr
          -994 -117 134 -207 hlineto
          -91 callgsubr
          219 498 -66 vlineto
          0 -21 5 -27 -58 -25 -24 -30 -20 vhcurveto
          24 -12 -33 31 -66 hhcurveto
          -113 -61 -60 -103 hvcurveto
          3 callgsubr
        </CharString>
        <CharString name="dvG_MA">
          454 701 128 callsubr
          -341 rmoveto
          -95 callsubr
          427 343 rmoveto
          -960 -117 134 -207 hlineto
          -91 callgsubr
          219 259 207 callgsubr
          74 -328 137 554 82 vlineto
          endchar
        </CharString>
        <CharString name="dvG_NA">
          448 501 216 -102 callsubr
          413 370 rmoveto
          -954 -117 134 -207 hlineto
          -91 callgsubr
          219 458 -63 -227 vlineto
          -123 -46 -60 -103 hvcurveto
          -113 vlineto
          20 callsubr
        </CharString>
        <CharString name="dvG_NNA">
          508 534 267 -11 callsubr
          440 117 rmoveto
          -1014 -117 134 -207 hlineto
          -91 callgsubr
          219 84 -288 124 callsubr
        </CharString>
        <CharString name="dvG_N_YA">
          771 1015 -104 callsubr
          -516 151 callgsubr
          110 vlineto
          23 5 16 31 vhcurveto
          29 hlineto
          4 -10 3 -25 -26 vvcurveto
          738 367 rmoveto
          -1277 -117 134 -207 hlineto
          -91 callgsubr
          219 572 vlineto
          141 callsubr
          -123 -46 -60 -103 hvcurveto
          -113 33 callsubr
        </CharString>
        <CharString name="dvG_R">
          87 callsubr
          endchar
        </CharString>
        <CharString name="dvG_RA">
          68 534 13 callsubr
          -574 -117 134 -176 hlineto
          -91 callgsubr
          188 78 -212 vlineto
          -266 -342 273 callsubr
          45 59 26 33 36 47 19 40 338 callgsubr
          -34 -8 -63 -57 vvcurveto
          -25 132 554 82 vlineto
          endchar
        </CharString>
        <CharString name="dvG_R_YA">
          373 621 -104 callsubr
          93 callgsubr
          -883 -117 134 -160 hlineto
          -91 callgsubr
          172 178 vlineto
          -55 callsubr
          84 callsubr
          -63 hlineto
          -261 -333 273 callsubr
          45 59 34 44 25 36 20 37 rlinecurve
          -58 37 74 -32 96 -40 callgsubr
        </CharString>
        <CharString name="dvG_SA">
          482 726 381 rmoveto
          -78 1 hlineto
          125 -66 callsubr
          84 hlineto
          93 callgsubr
          -988 -117 134 -207 hlineto
          -91 callgsubr
          219 267 vlineto
          -105 callgsubr
          115 -261 -100 callsubr
          hlineto
          endchar
        </CharString>
        <CharString name="dvG_VA">
          282 533 -94 callgsubr
          215 288 rmoveto
          -788 -117 134 -207 hlineto
          -91 callgsubr
          219 292 78 callsubr
          -135 vlineto
          -65 callsubr
          vlineto
          endchar
        </CharString>
        <CharString name="dvG_YA">
          373 617 -104 callsubr
          93 callgsubr
          -879 -117 134 -207 hlineto
          -91 callgsubr
          219 174 vlineto
          -43 callgsubr
          -89 callsubr
          vlineto
          endchar
        </CharString>
        <CharString name="dvGx">
          -167 234 554 330 callsubr
          -207 hlineto
          -91 callgsubr
          -182 -301 rmoveto
          248 callgsubr
        </CharString>
        <CharString name="dvGxA">
          76 127 109 rmoveto
          -59 -16 -33 -42 -78 callsubr
          hvcurveto
          414 562 rmoveto
          -573 -117 134 -207 hlineto
          -91 callgsubr
          219 210 callgsubr
        </CharString>
        <CharString name="dvGx_R">
          87 callsubr
          40 -428 rmoveto
          248 callgsubr
        </CharString>
        <CharString name="dvGx_RA">
          68 262 -30 rmoveto
          -59 -16 -33 -42 -78 callsubr
          hvcurveto
          272 701 rmoveto
          -574 -117 134 -176 hlineto
          -91 callgsubr
          188 78 -212 vlineto
          -266 -342 273 callsubr
          45 59 26 33 36 47 19 40 338 callgsubr
          -34 -8 -63 -57 vvcurveto
          -25 132 554 82 vlineto
          endchar
        </CharString>
        <CharString name="dvH">
          22 443 35 callsubr
          -261 387 rmoveto
          -110 81 -55 135 58 52 9 11 39 vhcurveto
          -52 callgsubr
          187 166 95 117 -528 110 callsubr
          endchar
        </CharString>
        <CharString name="dvHA">
          22 38 158 rmoveto
          -110 81 -55 135 58 52 9 11 39 vhcurveto
          -52 callgsubr
          187 166 95 117 -528 110 callsubr
          endchar
        </CharString>
        <CharString name="dvHA_mU">
          22 260 -7 rmoveto
          32 15 -7 -35 -36 -16 -7 -32 hvcurveto
          -60 hlineto
          -43 -12 9 46 -37 hvcurveto
          -6 8 rlineto
          -154 hlineto
          59 -76 rlineto
          -78 61 48 -27 66 hhcurveto
          103 hlineto
          104 49 43 119 122 -52 40 -101 hvcurveto
          -40 114 callgsubr
          -528 110 callsubr
          -24 vlineto
          -103 62 -57 144 2 vhcurveto
          endchar
        </CharString>
        <CharString name="dvHA_mUU">
          15 436 21 rmoveto
          78 -62 -48 15 -66 hhcurveto
          -23 114 callgsubr
          -521 -117 286 211 callgsubr
          -24 vlineto
          -60 21 -35 41 -18 vhcurveto
          -18 -19 -8 -26 -34 vvcurveto
          -102 50 -37 91 34 46 5 0 vhcurveto
          108 vlineto
          0 -41 -5 -25 -16 -15 7 25 26 12 7 16 vhcurveto
          25 hlineto
          43 12 6 -46 37 hvcurveto
          97 -123 rlineto
          154 hlineto
          endchar
        </CharString>
        <CharString name="dvHA_mvR">
          116 169 200 rmoveto
          18 6 11 23 vhcurveto
          156 hlineto
          19 5 -4 -16 -16 -5 -4 -19 hvcurveto
          -1 hlineto
          -83 -65 -27 -108 -126 91 -14 97 57 47 7 6 23 hvcurveto
          111 vlineto
          -6 -29 -35 -5 -43 hhcurveto
          -66 -14 5 22 14 7 6 13 hvcurveto
          9 hlineto
          98 47 44 91 91 -47 39 -98 hvcurveto
          -160 hlineto
          210 callsubr
          3 164 callsubr
          252 166 128 117 -622 -117 354 -46 -107 hlineto
          -113 -56 -35 -96 hvcurveto
          -18 vlineto
          1 -44 19 -22 19 -11 rrcurveto
          -19 -11 -19 -18 -48 vvcurveto
          -267 vlineto
          -124 91 -61 135 58 52 9 11 39 vhcurveto
          108 vlineto
          -12 -42 -38 -7 -59 hhcurveto
          -54 -52 17 64 hvcurveto
          endchar
        </CharString>
        <CharString name="dvH_LA">
          643 451 31 callgsubr
        </CharString>
        <CharString name="dvH_MA">
          285 532 200 rmoveto
          -103 4 hlineto
          81 -47 41 -102 vhcurveto
          -73 hlineto
          -20 -9 6 26 hvcurveto
          1 vlineto
          27 9 7 20 vhcurveto
          219 161 106 hlineto
          219 117 rmoveto
          -791 -117 326 -46 -79 hlineto
          -113 -56 -30 -106 hvcurveto
          -11 vlineto
          -54 17 -24 27 -16 vhcurveto
          -28 -14 -15 -23 -48 vvcurveto
          -83 270 callsubr
          99 vlineto
          21 11 8 23 vhcurveto
          49 hlineto
          26 8 -8 -21 hvcurveto
          -169 132 64 104 -132 137 604 82 vlineto
          endchar
        </CharString>
        <CharString name="dvH_NA">
          635 880 184 callsubr
          -121 -46 -58 -99 -2 hvcurveto
          -278 hlineto
          210 callsubr
          8 164 callsubr
          187 166 487 hlineto
          -191 -338 -102 callsubr
          413 370 rmoveto
          -1142 -117 293 -46 -47 hlineto
          -113 -56 -35 -96 hvcurveto
          -18 vlineto
          1 -44 16 -27 27 -16 rrcurveto
          -28 -19 -15 -30 -48 81 callgsubr
          267 -4 hlineto
          20 callsubr
        </CharString>
        <CharString name="dvH_NNA">
          698 724 267 -11 callsubr
          -518 -220 rmoveto
          210 callsubr
          8 164 callsubr
          187 166 115 -220 hlineto
          656 337 rmoveto
          -1204 -117 293 -46 -47 hlineto
          -113 -56 -35 -96 hvcurveto
          -18 vlineto
          1 -44 16 -27 27 -16 rrcurveto
          -28 -19 -15 -30 -48 81 callgsubr
          295 hlineto
          -74 16 55 -42 103 326 callsubr
          288 78 171 callsubr
        </CharString>
        <CharString name="dvH_R">
          117 210 -68 43 callgsubr
          107 467 16 callsubr
        </CharString>
        <CharString name="dvH_RA">
          117 443 399 16 callsubr
        </CharString>
        <CharString name="dvH_VA">
          437 681 499 rmoveto
          25 callsubr
          -135 vlineto
          -65 callsubr
          117 -527 -117 305 vlineto
          7 -377 -96 callgsubr
          endchar
        </CharString>
        <CharString name="dvH_YA">
          290 534 142 rmoveto
          -5 -14 -39 -5 -27 hhcurveto
          -13 hlineto
          10 15 5 21 31 vvcurveto
          1 vlineto
          81 -56 40 -122 vhcurveto
          -71 hlineto
          -20 -9 7 27 hvcurveto
          2 vlineto
          27 9 9 20 vhcurveto
          227 161 100 hlineto
          93 callgsubr
          -796 -117 334 -46 -87 hlineto
          -113 -56 -35 -106 hvcurveto
          -4 vlineto
          -56 19 -28 25 -15 vhcurveto
          -28 -19 -15 -25 -48 vvcurveto
          -73 270 callsubr
          89 -74 callsubr
          53 hlineto
          45 9 -15 -26 hvcurveto
          -3 vlineto
          -37 -25 -3 -36 vhcurveto
          -124 178 vlineto
          34 42 5 5 16 hvcurveto
          -62 140 598 82 vlineto
          endchar
        </CharString>
        <CharString name="dvI">
          -7 172 169 rmoveto
          -138 -251 138 83 hlineto
          0 30 -7 34 123 41 55 103 vhcurveto
          27 325 callgsubr
          -26 hlineto
          -22 -7 9 18 hvcurveto
          2 vlineto
          19 6 8 23 vhcurveto
          179 170 84 117 -498 -117 274 -50 -39 hlineto
          -113 -56 -39 -103 hvcurveto
          -10 250 callsubr
          26 hlineto
          33 6 -17 -20 hvcurveto
          -17 vlineto
          -25 -9 -14 -35 -21 -23 7 0 vhcurveto
          endchar
        </CharString>
        <CharString name="dvII">
          -7 374 384 rmoveto
          170 84 117 -88 vlineto
          -13 26 -7 26 19 vvcurveto
          32 19 5 27 15 15 -3 0 113 callsubr
          0 -22 6 -58 -66 -71 -25 -107 -41 14 -36 11 -26 53 callgsubr
          endchar
        </CharString>
        <CharString name="dvII_Anusvara">
          -4 426 960 rmoveto
          0 -22 6 -45 -89 -74 -30 -117 -53 17 -59 21 -36 53 callgsubr
          179 170 84 117 -88 hlineto
          -23 36 -10 49 31 vvcurveto
          42 25 20 37 11 16 -2 0 vhcurveto
          28 -32 79 callsubr
        </CharString>
        <CharString name="dvJ">
          -61 415 13 callsubr
          -455 -117 455 hlineto
          -63 vmoveto
          -325 -129 99 hlineto
          0 11 -13 -101 callgsubr
          84 hlineto
          endchar
        </CharString>
        <CharString name="dvJA">
          168 340 324 86 callsubr
        </CharString>
        <CharString name="dvJH">
          16 246 -5 rmoveto
          95 63 34 115 hvcurveto
          25 vlineto
          19 -4 17 -8 15 vhcurveto
          95 108 -268 120 callsubr
          99 117 -527 -18 callsubr
          vhcurveto
          endchar
        </CharString>
        <CharString name="dvJHA">
          222 220 211 rmoveto
          72 callgsubr
          -5 20 -8 12 vhcurveto
          78 -220 143 callgsubr
          117 -727 315 callsubr
          -50 -39 hlineto
          -113 -56 -39 -103 hvcurveto
          -10 250 callsubr
          117 vmoveto
          234 callgsubr
          179 170 78 -226 hlineto
          endchar
        </CharString>
        <CharString name="dvJH_MA">
          633 880 115 callgsubr
          -107 -52 -45 -73 -11 hvcurveto
          -244 120 callsubr
          284 142 callsubr
          427 343 rmoveto
          -1139 -18 callsubr
          95 63 222 callgsubr
          -4 17 -8 15 vhcurveto
          68 -12 hlineto
          -38 callgsubr
        </CharString>
        <CharString name="dvJH_NA">
          628 872 231 callsubr
          -257 120 callsubr
          484 hlineto
          -191 -338 -102 callsubr
          413 370 rmoveto
          -1134 -18 callsubr
          95 63 222 callgsubr
          -4 17 -8 15 vhcurveto
          84 -5 hlineto
          20 callsubr
        </CharString>
        <CharString name="dvJH_R">
          99 221 328 rmoveto
          312 callgsubr
          259 170 92 117 -612 -117 380 -50 -119 199 callsubr
          -10 vlineto
          -107 67 -34 91 vhcurveto
          2 hlineto
          30 6 -18 -19 hvcurveto
          -19 188 callgsubr
          25 vlineto
          203 callsubr
          223 vlineto
          endchar
        </CharString>
        <CharString name="dvJH_RA">
          313 480 384 rmoveto
          170 78 -226 -337 vlineto
          312 callgsubr
          167 -215 rmoveto
          203 callsubr
          2 hlineto
          -8 -56 1 -37 -17 vvcurveto
          -5 126 564 83 117 -820 -117 380 -50 -119 181 callsubr
          -10 vlineto
          -107 67 -34 91 vhcurveto
          2 hlineto
          30 6 -18 -19 hvcurveto
          -16 188 callgsubr
          endchar
        </CharString>
        <CharString name="dvJH_YA">
          524 768 -104 callsubr
          -202 -95 rmoveto
          84 callsubr
          -68 -234 120 callsubr
          171 hlineto
          -39 callgsubr
          424 164 rmoveto
          -1030 -18 callsubr
          95 63 222 callgsubr
          -4 17 -8 15 vhcurveto
          67 hlineto
          -86 23 85 -48 118 -40 callgsubr
        </CharString>
        <CharString name="dvJ_BA">
          439 558 15 callsubr
          215 291 rmoveto
          -945 -117 730 221 callgsubr
          -41 -35 -4 -11 -27 hvcurveto
          -419 -129 99 hlineto
          0 11 -13 -101 callgsubr
          96 hlineto
          -1 -10 -1 -11 -12 vvcurveto
          -117 100 callgsubr
        </CharString>
        <CharString name="dvJ_DA">
          394 773 368 116 callsubr
          -900 -117 673 -59 -32 vlineto
          -6 0 -505 173 callgsubr
          -92 -99 callsubr
          106 -14 callsubr
          91 hlineto
          -1 -12 -1 -13 -14 vvcurveto
          -119 vlineto
          -103 48 -53 113 27 22 3 3 12 vhcurveto
          57 callgsubr
        </CharString>
        <CharString name="dvJ_DDA">
          368 741 255 callsubr
          -872 -117 641 -50 -34 vlineto
          -36 -31 -4 -9 -25 hvcurveto
          -385 -129 99 hlineto
          0 11 -13 -101 callgsubr
          67 -9 hlineto
          -37 callsubr
        </CharString>
        <CharString name="dvJ_JA">
          505 971 13 callsubr
          -1011 -117 789 -63 -659 -129 99 hlineto
          0 11 -13 -101 callgsubr
          195 hlineto
          0 11 -22 -101 callgsubr
          81 -371 -26 callgsubr
        </CharString>
        <CharString name="dvJ_JHA">
          586 830 328 rmoveto
          -257 hlineto
          234 callgsubr
          179 170 78 hlineto
          221 117 rmoveto
          -1091 -117 652 -50 -39 hlineto
          -36 -31 -4 -9 -25 hvcurveto
          -391 -129 99 hlineto
          0 11 -13 -101 callgsubr
          73 -9 hlineto
          -10 250 callsubr
          11 hlineto
          72 callgsubr
          -5 20 -8 12 vhcurveto
          78 -220 178 callgsubr
        </CharString>
        <CharString name="dvJ_J_NYA">
          597 90 362 rmoveto
          99 hlineto
          0 11 -13 -101 callgsubr
          84 120 -325 hlineto
          973 180 rmoveto
          -1103 -117 881 -63 -330 -120 112 hlineto
          46 callsubr
          79 -371 -26 callgsubr
        </CharString>
        <CharString name="dvJ_J_VA">
          745 996 -94 callgsubr
          215 288 rmoveto
          -1251 -117 1029 73 callsubr
          -36 -29 -5 -10 -23 hvcurveto
          -745 -129 99 hlineto
          0 11 -13 -101 callgsubr
          195 hlineto
          0 11 -22 -101 callgsubr
          92 hlineto
          -1 -8 0 -8 -9 vvcurveto
          -135 vlineto
          -65 callsubr
          vlineto
          endchar
        </CharString>
        <CharString name="dvJ_J_YA">
          830 1074 -104 callsubr
          93 callgsubr
          -1336 -117 905 74 callgsubr
          -21 -4 -14 -9 -10 vhcurveto
          44 -16 -55 33 -98 hhcurveto
          -600 -129 99 hlineto
          0 11 -13 -101 callgsubr
          195 hlineto
          0 11 -22 -101 callgsubr
          8 hlineto
          62 21 -10 -33 hvcurveto
          -58 vlineto
          -89 callsubr
          vlineto
          endchar
        </CharString>
        <CharString name="dvJ_KA">
          596 1063 283 callsubr
          -1103 -117 679 -380 vlineto
          171 callgsubr
          -407 -129 99 hlineto
          0 11 -13 -101 callgsubr
          92 hlineto
          -1 -7 0 -8 -8 vvcurveto
          -146 -75 callsubr
        </CharString>
        <CharString name="dvJ_MA">
          583 830 128 callsubr
          -341 rmoveto
          -95 callsubr
          427 343 rmoveto
          -1089 -117 662 328 callsubr
          -22 -19 -2 -3 -17 hvcurveto
          31 -24 -48 19 -79 hhcurveto
          -284 -129 99 hlineto
          0 11 -13 -101 callgsubr
          15 hlineto
          39 23 -3 -11 12 hvcurveto
          -7 -19 -3 -21 -23 vvcurveto
          -86 vlineto
          -38 callgsubr
        </CharString>
        <CharString name="dvJ_NA">
          564 617 216 -102 callsubr
          413 370 rmoveto
          -1070 -117 848 -63 -227 hlineto
          -49 -37 -10 -18 -26 hvcurveto
          21 -31 -45 7 -45 hhcurveto
          -258 -129 99 hlineto
          0 11 -13 -101 callgsubr
          50 hlineto
          13 11 -2 -3 9 hvcurveto
          -1 -12 -1 -13 -13 vvcurveto
          -113 vlineto
          20 callsubr
        </CharString>
        <CharString name="dvJ_NY">
          12 130 371 rmoveto
          112 hlineto
          46 callsubr
          183 120 -434 hlineto
          -170 180 rmoveto
          -117 604 240 callgsubr
        </CharString>
        <CharString name="dvJ_NYA">
          216 279 callsubr
          500 -63 -330 -120 112 vlineto
          46 callsubr
          79 -371 193 callsubr
        </CharString>
        <CharString name="dvJ_NY_YA">
          531 775 -104 callsubr
          93 callgsubr
          -1037 -117 606 74 callgsubr
          -19 -3 -13 -7 -10 vhcurveto
          46 -15 -53 28 -93 hhcurveto
          -272 -120 112 hlineto
          46 callsubr
          11 hlineto
          58 9 -14 -31 1 hvcurveto
          -56 vlineto
          -89 callsubr
          vlineto
          endchar
        </CharString>
        <CharString name="dvJ_R">
          -10 188 -56 60 callgsubr
        </CharString>
        <CharString name="dvJ_RA">
          32 callgsubr
          endchar
        </CharString>
        <CharString name="dvJ_TA">
          426 892 13 callsubr
          -932 -117 710 -64 hlineto
          273 callgsubr
          -19 -18 -2 -3 -16 vhcurveto
          -456 -129 99 hlineto
          0 11 -13 -101 callgsubr
          97 hlineto
          -3 -15 -1 -16 -17 vvcurveto
          158 callgsubr
          vlineto
          endchar
        </CharString>
        <CharString name="dvJ_TTA">
          390 756 364 175 callgsubr
          -886 -117 656 -63 -6 vlineto
          -15 0 -505 -129 99 hlineto
          0 11 -13 -101 callgsubr
          99 hlineto
          -4 -17 -2 -19 -20 vvcurveto
          -13 callsubr
        </CharString>
        <CharString name="dvJ_VA">
          410 661 -94 callgsubr
          215 288 rmoveto
          -916 -117 694 73 callsubr
          -36 -29 -5 -10 -23 hvcurveto
          -410 -129 99 hlineto
          0 11 -13 -101 callgsubr
          94 hlineto
          -1 -8 0 -8 -9 vvcurveto
          -135 vlineto
          -65 callsubr
          vlineto
          endchar
        </CharString>
        <CharString name="dvJ_YA">
          491 735 -104 callsubr
          93 callgsubr
          -997 -117 566 160 callgsubr
          -274 -129 99 hlineto
          0 11 -13 -101 callgsubr
          5 hlineto
          62 22 -9 -34 hvcurveto
          -58 vlineto
          -89 callsubr
          vlineto
          endchar
        </CharString>
        <CharString name="dvJx">
          -61 40 -75 172 callgsubr
          375 746 rmoveto
          -455 -117 455 hlineto
          -63 vmoveto
          -325 -129 99 hlineto
          0 11 -13 -101 callgsubr
          84 hlineto
          endchar
        </CharString>
        <CharString name="dvJxA">
          168 -11 -64 172 callgsubr
          351 388 86 callsubr
        </CharString>
        <CharString name="dvJx_JxA">
          505 45 18 rmoveto
          -25 callgsubr
          349 hmoveto
          -25 callgsubr
          577 653 rmoveto
          -1011 -117 789 -63 -659 -129 99 hlineto
          0 11 -13 -101 callgsubr
          195 hlineto
          0 11 -22 -101 callgsubr
          81 -371 -26 callgsubr
        </CharString>
        <CharString name="dvJx_R">
          -10 10 -15 rmoveto
          -78 callsubr
          339 callgsubr
          vhcurveto
          178 -41 60 callgsubr
        </CharString>
        <CharString name="dvJx_RA">
          32 callgsubr
          -344 -377 rmoveto
          248 callgsubr
        </CharString>
        <CharString name="dvJx_YA">
          491 45 21 rmoveto
          -25 callgsubr
          690 203 -107 callsubr
          93 callgsubr
          -997 -117 566 160 callgsubr
          -274 173 callgsubr
          -78 -99 callsubr
          92 -14 callsubr
          5 hlineto
          62 22 -9 -34 hvcurveto
          -58 vlineto
          -89 callsubr
          vlineto
          endchar
        </CharString>
        <CharString name="dvK">
          -3 467 339 rmoveto
          123 9 hlineto
          98 -37 59 -121 -14 -22 -1 -4 -13 vhcurveto
          54 315 callgsubr
          -711 -117 287 -380 vlineto
          -103 callgsubr
          endchar
        </CharString>
        <CharString name="dvKA">
          206 247 174 -69 callsubr
          -711 157 callsubr
          vlineto
          endchar
        </CharString>
        <CharString name="dvKH">
          153 615 256 54 callgsubr
          -111 60 -87 156 40 55 6 13 37 vhcurveto
          132 callsubr
        </CharString>
        <CharString name="dvKHA">
          367 613 63 callgsubr
          -872 -117 270 hlineto
          0 10 -13 -34 vvcurveto
          -119 vlineto
          -23 -7 -16 -33 -13 -9 1 1 -12 vhcurveto
          100 -133 -258 -24 callsubr
        </CharString>
        <CharString name="dvKH_KHA">
          947 1195 4 callgsubr
          -666 -35 -17 callgsubr
          884 415 rmoveto
          -1453 -98 callgsubr
          449 hlineto
          -54 callsubr
          -10 1 1 -11 vhcurveto
          93 -5 -45 48 -126 11 callgsubr
          22 20 2 2 17 vhcurveto
          -64 27 63 -44 110 hhcurveto
          40 55 6 13 37 hvcurveto
          76 callsubr
        </CharString>
        <CharString name="dvKH_MA">
          779 1026 128 callsubr
          -341 rmoveto
          -95 callsubr
          -289 7 -17 callgsubr
          716 415 rmoveto
          -1285 -98 callgsubr
          455 328 callsubr
          -24 -21 -2 -5 -18 hvcurveto
          35 -24 -44 18 -76 11 callgsubr
          28 23 2 5 20 vhcurveto
          -32 25 43 -19 68 52 callgsubr
        </CharString>
        <CharString name="dvKH_NA">
          767 820 216 -102 callsubr
          -291 34 -17 callgsubr
          704 415 rmoveto
          -1273 -98 callgsubr
          648 -63 -227 hlineto
          -45 -34 -8 -15 -26 hvcurveto
          16 -22 -34 8 -51 11 callgsubr
          28 23 3 7 19 vhcurveto
          -37 25 46 -20 71 hhcurveto
          266 callsubr
          hvcurveto
          -34 callsubr
        </CharString>
        <CharString name="dvKH_R">
          153 615 256 -12 callgsubr
        </CharString>
        <CharString name="dvKH_RA">
          365 613 63 callgsubr
          -872 187 callgsubr
          -102 51 -65 129 -10 vhcurveto
          -119 -97 rlineto
          -4 vlineto
          181 -14 106 113 rlineto
          -82 callsubr
        </CharString>
        <CharString name="dvKH_SHA">
          781 166 230 -1 callsubr
          vhcurveto
          -48 hlineto
          71 -12 -43 37 -110 34 callgsubr
        </CharString>
        <CharString name="dvKH_TA">
          607 529 335 -34 callgsubr
        </CharString>
        <CharString name="dvKH_VA">
          601 852 -94 callgsubr
          -323 -48 -17 callgsubr
          538 415 rmoveto
          -1107 -98 callgsubr
          482 73 callsubr
          -53 -38 -11 -21 -26 hvcurveto
          11 -21 -29 7 -40 11 callgsubr
          27 21 4 6 18 vhcurveto
          -37 24 44 -20 73 9 callgsubr
          vlineto
          endchar
        </CharString>
        <CharString name="dvKH_YA">
          686 930 224 -41 callsubr
        </CharString>
        <CharString name="dvKHx">
          153 48 4 rmoveto
          -25 callgsubr
          567 252 54 callgsubr
          -111 60 -87 156 40 55 6 13 37 vhcurveto
          132 callsubr
        </CharString>
        <CharString name="dvKHxA">
          370 50 30 callgsubr
          568 217 -30 callsubr
          218 301 rmoveto
          -876 191 callgsubr
          -97 callsubr
          250 -63 hlineto
          0 -26 5 -33 -123 -29 -59 -103 vhcurveto
          -78 vlineto
          -103 36 -54 123 34 18 6 0 vhcurveto
          -105 136 554 82 vlineto
          endchar
        </CharString>
        <CharString name="dvKHx_MA">
          788 51 30 callgsubr
          984 442 40 callgsubr
          -341 rmoveto
          -95 callsubr
          -298 7 -17 callgsubr
          725 415 rmoveto
          -1294 -98 callgsubr
          464 328 callsubr
          -27 -23 -3 -5 -21 hvcurveto
          36 -23 -44 18 -78 11 callgsubr
          29 25 3 5 20 vhcurveto
          -33 27 46 -19 69 52 callgsubr
        </CharString>
        <CharString name="dvKHx_R">
          153 562 43 rmoveto
          -59 -16 -33 -42 -78 callsubr
          hvcurveto
          53 213 -12 callgsubr
        </CharString>
        <CharString name="dvKHx_RA">
          371 505 -4 rmoveto
          -59 -16 -33 -42 -78 callsubr
          hvcurveto
          108 225 -30 callsubr
          219 301 rmoveto
          -872 187 callgsubr
          -102 51 -65 129 -10 vhcurveto
          -119 -97 rlineto
          -4 vlineto
          181 -14 106 113 rlineto
          -82 callsubr
        </CharString>
        <CharString name="dvKHx_SA">
          780 50 30 callgsubr
          974 377 rmoveto
          -78 1 hlineto
          125 -66 callsubr
          84 hlineto
          -495 -219 -17 callgsubr
          717 415 rmoveto
          -1286 -98 callgsubr
          436 hlineto
          0 10 -4 callsubr
          -123 vlineto
          83 callsubr
          94 -3 -38 49 -127 11 callgsubr
          20 18 1 3 15 vhcurveto
          -65 21 56 -43 107 hhcurveto
          12 callsubr
          hvcurveto
          -73 callgsubr
        </CharString>
        <CharString name="dvKHx_SHA">
          781 51 30 callgsubr
          115 226 -1 callsubr
          -16 -16 0 1 -17 vhcurveto
          70 -12 -43 37 -109 34 callgsubr
        </CharString>
        <CharString name="dvKHx_TA">
          607 47 30 callgsubr
          482 331 -34 callgsubr
        </CharString>
        <CharString name="dvKHx_VA">
          601 51 30 callgsubr
          801 173 -96 callgsubr
          -323 -48 -17 callgsubr
          538 415 rmoveto
          -1107 -98 callgsubr
          482 73 callsubr
          -53 -38 -11 -21 -26 hvcurveto
          11 -21 -29 7 -40 11 callgsubr
          27 21 4 6 18 vhcurveto
          -37 24 44 -20 73 9 callgsubr
          vlineto
          endchar
        </CharString>
        <CharString name="dvKHx_YA">
          686 51 30 callgsubr
          879 220 -41 callsubr
        </CharString>
        <CharString name="dvK_CA">
          494 738 183 rmoveto
          134 callgsubr
          29 vlineto
          255 callgsubr
          -125 hlineto
          49 -19 -43 27 -83 174 callgsubr
          355 vlineto
          221 117 rmoveto
          -999 -117 287 -380 hlineto
          -103 callgsubr
          -40 37 vlineto
          0 -6 -19 -30 vvcurveto
          -35 229 callgsubr
        </CharString>
        <CharString name="dvK_DA">
          441 383 554 rmoveto
          297 -59 -32 hlineto
          -44 -36 -5 -12 -28 hvcurveto
          18 -24 -35 9 -49 78 callgsubr
          437 -132 116 callsubr
          -947 -117 287 -380 vlineto
          -103 callgsubr
          -4 vlineto
          0 vlineto
          -3 vlineto
          -119 vlineto
          -103 48 -53 113 27 22 3 3 12 vhcurveto
          57 callgsubr
        </CharString>
        <CharString name="dvK_JA">
          724 1189 13 callsubr
          -1229 -117 287 -380 hlineto
          -103 callgsubr
          -81 141 86 vlineto
          98 -55 59 -121 -14 -22 -1 -4 -13 vhcurveto
          54 585 -63 -285 -129 62 -15 callgsubr
        </CharString>
        <CharString name="dvK_KA">
          642 684 174 -42 callsubr
        </CharString>
        <CharString name="dvK_KHA">
          799 1047 4 callgsubr
          -373 18 rmoveto
          -23 -7 -16 -33 -13 -10 1 1 -11 vhcurveto
          96 -1 -47 58 -120 174 callgsubr
          281 vlineto
          0 10 -4 callsubr
          592 164 rmoveto
          -1306 -117 287 -380 hlineto
          -103 callgsubr
          -150 -24 callsubr
        </CharString>
        <CharString name="dvK_LA">
          659 903 114 callsubr
          -38 -32 -7 -13 -26 hvcurveto
          20 -25 -36 11 -52 174 callgsubr
          520 282 callgsubr
          -1165 -117 287 -380 hlineto
          -103 callgsubr
          -4 vlineto
          0 vlineto
          -8 vlineto
          3 callgsubr
        </CharString>
        <CharString name="dvK_MA">
          640 887 115 callgsubr
          -23 -20 -2 -4 -18 hvcurveto
          42 -24 -47 23 -76 174 callgsubr
          296 227 callsubr
          427 343 rmoveto
          -1146 -117 287 -380 hlineto
          -103 callgsubr
          -135 vlineto
          -38 callgsubr
        </CharString>
        <CharString name="dvK_NA">
          619 863 184 callsubr
          -40 -32 -6 -12 -24 hvcurveto
          20 -27 -39 11 -52 hhcurveto
          -11 -21 -2 -2 -8 hvcurveto
          54 481 vlineto
          -191 -338 -102 callsubr
          413 370 rmoveto
          -1125 -117 286 -67 callsubr
          382 vlineto
          1 6 13 1 8 181 callgsubr
          vlineto
          0 vlineto
          -10 vlineto
          -113 vlineto
          20 callsubr
        </CharString>
        <CharString name="dvK_NNA">
          687 713 267 -11 callsubr
          -330 hmoveto
          114 -84 296 callgsubr
          770 203 rmoveto
          -1193 -117 287 -380 hlineto
          7 callsubr
          -47 124 callsubr
        </CharString>
        <CharString name="dvK_PA">
          479 723 245 rmoveto
          13 callgsubr
          276 86 vlineto
          -340 hmoveto
          114 -84 296 callgsubr
          562 203 rmoveto
          -985 -117 287 -380 hlineto
          7 callsubr
          -41 vlineto
          51 callsubr
        </CharString>
        <CharString name="dvK_PHA">
          677 715 228 -77 callgsubr
        </CharString>
        <CharString name="dvK_P_RA">
          479 383 554 rmoveto
          114 -69 296 callgsubr
          254 71 rmoveto
          86 -253 hlineto
          13 callgsubr
          308 337 rmoveto
          -985 -59 callgsubr
          365 vlineto
          3 10 33 2 13 181 callgsubr
          vlineto
          0 vlineto
          3 -65 22 -44 51 -21 -108 -194 rcurveline
          35 callgsubr
        </CharString>
        <CharString name="dvK_R">
          34 633 554 22 callsubr
        </CharString>
        <CharString name="dvK_RA">
          216 682 283 callsubr
          -722 -117 299 -344 vlineto
          0 -17 -8 -25 -35 -7 17 25 vhcurveto
          99 89 callsubr
          -110 vlineto
          223 callsubr
          -142 rlineto
          -54 callgsubr
        </CharString>
        <CharString name="dvK_SA">
          647 891 381 rmoveto
          -78 1 hlineto
          125 vlineto
          31 -6 16 0 vhcurveto
          84 hlineto
          -215 -170 -31 callgsubr
          437 164 rmoveto
          -1153 -117 287 -380 hlineto
          -103 callgsubr
          -169 -51 callsubr
        </CharString>
        <CharString name="dvK_SHA">
          642 608 497 131 callsubr
          -461 -26 callsubr
          45 callgsubr
        </CharString>
        <CharString name="dvK_SS">
          6 555 435 rmoveto
          -165 hlineto
          238 callsubr
          30 vlineto
          -65 callgsubr
          332 hlineto
          -291 149 16 callgsubr
          endchar
        </CharString>
        <CharString name="dvK_SSA">
          227 396 517 rmoveto
          -65 callgsubr
          248 -320 -91 callsubr
          -222 -236 -81 hlineto
          238 callsubr
          -132 -18 16 callgsubr
          endchar
        </CharString>
        <CharString name="dvK_SS_MA">
          632 879 128 callsubr
          -341 rmoveto
          -95 callsubr
          -407 141 16 callgsubr
          200 155 rmoveto
          -117 207 -108 -39 vlineto
          -31 -27 -4 -7 -22 hvcurveto
          -162 hlineto
          238 callsubr
          30 vlineto
          -65 callgsubr
          237 hlineto
          -1 -8 0 -9 -9 vvcurveto
          -86 vlineto
          101 callgsubr
          240 callgsubr
        </CharString>
        <CharString name="dvK_SS_M_YA">
          946 1190 -104 callsubr
          -392 -108 rmoveto
          108 183 vlineto
          -55 callsubr
          -25 -5 -16 -14 -10 vhcurveto
          25 -22 -37 13 -59 hhcurveto
          -187 -233 rmoveto
          -95 callsubr
          -400 141 16 callgsubr
          1148 155 rmoveto
          -962 -117 214 328 callsubr
          -31 -27 -4 -7 -22 hvcurveto
          -155 hlineto
          238 callsubr
          30 vlineto
          -65 callgsubr
          230 hlineto
          -1 -8 0 -9 -9 vvcurveto
          -51 callgsubr
          38 vlineto
          30 9 -4 -21 hvcurveto
          -33 vlineto
          -89 callsubr
          vlineto
          endchar
        </CharString>
        <CharString name="dvK_SS_VA">
          456 707 -94 callgsubr
          -443 86 16 callgsubr
          201 155 rmoveto
          -117 235 254 callgsubr
          -78 -47 -25 -46 -22 hvcurveto
          -97 hlineto
          238 callsubr
          30 vlineto
          -65 callgsubr
          247 -109 hlineto
          -65 callsubr
          117 vlineto
          endchar
        </CharString>
        <CharString name="dvK_SS_YA">
          535 779 318 callgsubr
          27 47 hvcurveto
          57 vlineto
          77 4 35 41 77 vvcurveto
          38 221 callsubr
          -515 -85 16 callgsubr
          200 155 rmoveto
          -117 106 vlineto
          -39 callgsubr
          -9 vlineto
          81 callsubr
          -98 hlineto
          238 callsubr
          30 vlineto
          -65 callgsubr
          241 -50 230 callsubr
          vlineto
          endchar
        </CharString>
        <CharString name="dvK_S_DDA">
          859 813 381 rmoveto
          36 callsubr
          285 -50 -34 hlineto
          -106 -56 -34 -89 -6 hvcurveto
          -214 3 -31 callgsubr
          556 -123 200 callgsubr
          -1363 -117 287 -380 vlineto
          -103 callgsubr
          -169 -39 callsubr
          129 hlineto
          -47 24 53 -19 76 hhcurveto
          -21 callsubr
          endchar
        </CharString>
        <CharString name="dvK_S_P_LA">
          1340 1584 488 rmoveto
          62 callgsubr
          -90 vlineto
          -2 -13 -15 -1 -12 194 callsubr
          528 vlineto
          -668 hmoveto
          -173 -103 36 callsubr
          -131 -170 -31 callgsubr
          1130 164 rmoveto
          -1846 -117 287 -380 hlineto
          -103 callgsubr
          -169 -39 callsubr
          140 hlineto
          -96 3 45 -51 122 hhcurveto
          23 25 2 3 21 hvcurveto
          -80 19 61 -39 116 hhcurveto
          -3 callsubr
          hvcurveto
          -84 callsubr
        </CharString>
        <CharString name="dvK_S_P_RA">
          884 902 554 rmoveto
          -173 -89 36 callsubr
          -131 -170 -31 callgsubr
          366 47 rmoveto
          86 -253 hlineto
          13 callgsubr
          308 337 rmoveto
          -1390 -117 287 -380 hlineto
          -103 callgsubr
          -169 -39 callsubr
          138 hlineto
          11 -31 21 -23 32 -13 -108 -194 rcurveline
          35 callgsubr
        </CharString>
        <CharString name="dvK_S_TA">
          894 1138 295 callsubr
          -86 1 hlineto
          125 -66 callsubr
          331 hlineto
          -462 -170 -31 callgsubr
          684 164 rmoveto
          -1400 -117 287 -380 hlineto
          -103 callgsubr
          -169 -39 callsubr
          116 -107 hlineto
          -48 callsubr
        </CharString>
</ttFont>
